<?xml version="1.0" encoding="UTF-8" standalone="no"?>
<svg
   id="Capa_2"
   viewBox="0 0 875.61 107.79"
   version="1.1"
   width="875.60999"
   height="107.79"
   xmlns="http://www.w3.org/2000/svg"
   xmlns:svg="http://www.w3.org/2000/svg">
  <defs
     id="defs33" />
  <path
     d="m 748.77,47.56 h 1.62 V 36.9 h 0.04 l 4.02,10.66 h 1.46 l 4.02,-10.66 h 0.04 v 10.66 h 1.6 V 34.74 h -2.33 l -4.06,10.77 -4.02,-10.77 h -2.34 l -0.04,12.82 z m 21.27,-2.95 c -0.27,1.21 -1.15,1.81 -2.41,1.81 -2.03,0 -2.94,-1.43 -2.89,-3.05 h 6.95 c 0.09,-2.23 -0.91,-5.31 -4.2,-5.31 -2.53,0 -4.36,2.04 -4.36,4.83 0.09,2.84 1.49,4.88 4.46,4.88 2.08,0 3.57,-1.11 3.97,-3.16 z m -5.28,-2.59 c 0.11,-1.42 1.06,-2.62 2.68,-2.62 1.46,0 2.65,1.16 2.68,2.62 z m 10.15,-6.52 h -1.53 v 2.78 h -1.55 v 1.34 h 1.58 v 5.91 c 0,1.71 0.63,2.03 2.21,2.03 h 1.12 v -1.34 h -0.7 c -0.95,0 -1.15,-0.13 -1.15,-0.83 V 39.6 h 1.85 v -1.34 h -1.83 v -2.78 z m 2.91,12.05 h 1.53 v -4.13 c 0,-2.35 0.89,-3.75 3.36,-3.75 v -1.62 c -1.65,-0.05 -2.68,0.68 -3.41,2.17 h -0.04 v -1.96 h -1.44 v 9.28 z m 5,-4.62 c 0,2.71 1.56,4.85 4.5,4.85 2.94,0 4.5,-2.14 4.5,-4.85 0,-2.71 -1.56,-4.86 -4.5,-4.86 -2.94,0 -4.5,2.11 -4.5,4.85 m 1.61,-0.02 c 0,-2.26 1.3,-3.52 2.89,-3.52 1.59,0 2.89,1.26 2.89,3.52 0,2.26 -1.29,3.53 -2.89,3.53 -1.6,0 -2.89,-1.25 -2.89,-3.5 m 15.92,-0.1 c 0,1.81 -0.7,3.57 -2.78,3.57 -2.08,0 -2.92,-1.69 -2.92,-3.52 0,-1.83 0.79,-3.5 2.84,-3.5 2.05,0 2.87,1.69 2.87,3.43 m -7.18,8.29 h 1.53 v -4.79 h 0.04 c 0.68,1.1 2.04,1.46 2.99,1.46 2.84,0 4.24,-2.23 4.24,-4.83 0,-2.6 -1.42,-4.88 -4.27,-4.88 -1.27,0 -2.46,0.45 -2.96,1.47 h -0.04 v -1.25 h -1.53 v 12.83 z m 9.66,-8.19 c 0,2.71 1.56,4.85 4.5,4.85 2.94,0 4.5,-2.14 4.5,-4.85 0,-2.71 -1.56,-4.86 -4.5,-4.86 -2.94,0 -4.5,2.12 -4.5,4.86 m 1.62,0 c 0,-2.26 1.29,-3.52 2.89,-3.52 1.6,0 2.89,1.26 2.89,3.52 0,2.26 -1.3,3.5 -2.89,3.5 -1.59,0 -2.89,-1.25 -2.89,-3.5 m 8.77,4.63 h 1.53 V 34.72 h -1.53 z m 3.38,0 h 1.53 v -9.28 h -1.53 z m 1.53,-12.82 h -1.53 v 1.87 h 1.53 z m 3.99,0.75 h -1.53 v 2.78 h -1.58 v 1.34 h 1.58 v 5.92 c 0,1.71 0.63,2.03 2.21,2.03 h 1.17 V 46.2 h -0.7 c -0.95,0 -1.15,-0.13 -1.15,-0.83 v -5.79 h 1.85 v -1.34 h -1.85 v -2.79 z m 8.85,8.83 c 0,0.84 -0.83,2.1 -2.83,2.1 -0.93,0 -1.78,-0.36 -1.78,-1.34 0,-1.13 0.86,-1.49 1.87,-1.67 1.01,-0.18 2.17,-0.2 2.76,-0.63 v 1.54 z m 2.48,2.01 c -0.14,0.06 -0.29,0.09 -0.45,0.09 -0.48,0 -0.48,-0.32 -0.48,-1.04 v -4.75 c 0,-2.17 -1.81,-2.55 -3.48,-2.55 -2.07,0 -3.84,0.81 -3.93,3.12 h 1.53 c 0.07,-1.34 1.02,-1.76 2.32,-1.76 0.97,0 2.06,0.21 2.06,1.54 0,1.15 -1.44,1.04 -3.12,1.37 -1.58,0.3 -3.12,0.75 -3.12,2.85 0,1.85 1.38,2.6 3.07,2.6 1.25,0.04 2.46,-0.49 3.27,-1.44 0,1.01 0.5,1.44 1.29,1.44 0.38,0.02 0.76,-0.07 1.09,-0.25 l -0.04,-1.23 z m -4.59,-9.33 h 1.15 l -1.54,-2.57 h -1.96 z m 11.45,2.33 c -0.05,-1.52 0.7,-3.16 2.48,-3.16 1.28,-0.08 2.38,0.9 2.46,2.18 0,0.04 0,0.08 0,0.12 0,1.76 -1.1,2.55 -3.25,3.87 -1.79,1.12 -3.32,2.19 -3.57,5.21 h 8.31 v -1.34 h -6.53 c 0.3,-1.58 1.97,-2.39 3.57,-3.36 1.6,-0.97 3.07,-2.13 3.07,-4.37 0,-2.37 -1.76,-3.66 -3.98,-3.66 -2.68,0 -4.22,1.92 -4.09,4.5 h 1.54 z m 7.66,1.97 c 0,2.8 0.25,6.46 4.24,6.46 3.99,0 4.24,-3.66 4.24,-6.46 0,-2.8 -0.25,-6.48 -4.24,-6.48 -3.99,0 -4.24,3.66 -4.24,6.48 m 1.61,-0.01 c 0,-1.89 0,-5.12 2.62,-5.12 2.62,0 2.62,3.23 2.62,5.12 0,1.89 0,5.14 -2.61,5.14 -2.61,0 -2.62,-3.23 -2.62,-5.13 m 11.18,0.27 c 0.3,-0.03 0.59,-0.05 0.89,-0.05 1.51,0 2.71,0.84 2.71,2.44 0,1.6 -1.28,2.46 -2.76,2.46 -1.74,0 -2.68,-1.15 -2.71,-2.8 h -1.53 c -0.05,2.62 1.65,4.15 4.24,4.15 2.38,0 4.38,-1.34 4.38,-3.88 0,-1.52 -0.75,-2.75 -2.3,-3.09 v -0.04 c 1.02,-0.44 1.7,-1.42 1.76,-2.53 0.03,-2.35 -1.63,-3.41 -3.86,-3.41 -2.55,0 -3.84,1.69 -3.93,4.11 h 1.53 c 0,-1.49 0.74,-2.77 2.41,-2.77 1.29,0 2.26,0.72 2.26,2.05 0,1.33 -1.13,2.08 -2.43,2.08 h -0.66 z m 6.4,-0.27 c 0,2.8 0.25,6.46 4.24,6.46 3.99,0 4.24,-3.66 4.24,-6.46 0,-2.8 -0.25,-6.48 -4.24,-6.48 -3.99,0 -4.24,3.66 -4.24,6.48 m 1.62,0 c 0,-1.89 0.02,-5.12 2.62,-5.12 2.6,0 2.62,3.23 2.62,5.12 0,1.89 -0.02,5.14 -2.63,5.14 -2.61,0 -2.62,-3.23 -2.62,-5.13"
     id="path1"
     style="fill:#ffffff" />
  <path
     d="m 759.46,21.5 c -0.39,-2.73 -2.6,-4.17 -5.28,-4.17 -3.95,0 -6.07,3.03 -6.07,6.75 0,3.72 1.94,6.67 5.92,6.67 3.23,0 5.22,-1.94 5.55,-5.13 h -1.71 c -0.16,2.12 -1.45,3.7 -3.7,3.7 -3.07,0 -4.36,-2.44 -4.36,-5.36 0,-2.68 1.29,-5.19 4.34,-5.19 1.79,0 3.23,0.89 3.57,2.73 h 1.72 z m 1.04,4.33 c 0,2.71 1.56,4.84 4.5,4.84 2.94,0 4.51,-2.13 4.51,-4.84 0,-2.71 -1.56,-4.87 -4.51,-4.87 -2.95,0 -4.5,2.14 -4.5,4.87 m 1.62,0 c 0,-2.26 1.3,-3.52 2.89,-3.52 1.59,0 2.89,1.25 2.89,3.52 0,2.27 -1.29,3.5 -2.89,3.5 -1.6,0 -2.89,-1.25 -2.89,-3.5 m 8.72,4.63 h 1.53 v -5.78 c 0.08,-1.31 1.16,-2.34 2.47,-2.35 1.37,0 1.74,0.86 1.74,2.06 v 6.06 h 1.53 v -5.78 c 0,-1.44 0.95,-2.37 2.42,-2.37 1.47,0 1.79,0.89 1.79,2.06 v 6.09 h 1.53 v -6.79 c 0,-1.92 -1.24,-2.68 -3.09,-2.68 -1.18,0 -2.27,0.59 -2.91,1.58 -0.38,-1.13 -1.42,-1.58 -2.55,-1.58 -1.21,-0.04 -2.35,0.56 -3,1.58 h -0.02 v -1.4 h -1.43 v 9.28 z m 22.03,-4.7 c 0,1.81 -0.7,3.57 -2.79,3.57 -2.09,0 -2.92,-1.69 -2.92,-3.52 0,-1.83 0.79,-3.5 2.84,-3.5 2.05,0 2.88,1.69 2.88,3.43 m -7.18,8.29 h 1.53 v -4.81 h 0.04 c 0.68,1.09 2.05,1.45 3,1.45 2.84,0 4.24,-2.2 4.24,-4.83 0,-2.63 -1.42,-4.88 -4.27,-4.88 -1.28,0 -2.46,0.45 -2.96,1.47 h -0.04 v -1.26 h -1.55 l 0.02,12.85 z m 10.12,-3.57 h 1.52 v -4.11 c 0,-2.35 0.89,-3.76 3.36,-3.76 v -1.63 c -1.65,-0.05 -2.68,0.68 -3.41,2.17 h -0.04 v -1.96 h -1.43 v 9.28 z m 5,-4.63 c 0,2.71 1.56,4.84 4.51,4.84 2.95,0 4.5,-2.13 4.5,-4.84 0,-2.71 -1.56,-4.87 -4.5,-4.87 -2.94,0 -4.51,2.14 -4.51,4.87 m 1.62,0 c 0,-2.26 1.29,-3.52 2.89,-3.52 1.6,0 2.89,1.25 2.89,3.52 0,2.27 -1.29,3.5 -2.89,3.5 -1.6,0 -2.89,-1.25 -2.89,-3.5 m 8.7,4.63 h 1.53 v -5.78 c 0.08,-1.32 1.17,-2.34 2.49,-2.35 1.37,0 1.74,0.86 1.74,2.06 v 6.06 h 1.52 v -5.78 c -0.07,-1.23 0.87,-2.28 2.1,-2.35 0.1,0 0.21,0 0.32,0 1.49,0 1.78,0.89 1.78,2.06 v 6.06 h 1.52 v -6.79 c 0,-1.92 -1.24,-2.68 -3.09,-2.68 -1.18,0 -2.27,0.59 -2.91,1.58 -0.38,-1.13 -1.42,-1.58 -2.55,-1.58 -1.21,-0.04 -2.35,0.56 -3,1.58 h -0.04 v -1.4 h -1.43 v 9.28 z m 16.35,-9.28 h -1.53 v 9.28 h 1.53 z m -1.87,-1.27 h 1.15 l 2.35,-2.57 h -1.91 l -1.58,2.57 z m 3.12,7.63 c 0.09,2.29 1.85,3.12 3.93,3.12 1.89,0 3.95,-0.71 3.95,-2.92 0,-1.79 -1.51,-2.3 -3.04,-2.64 -1.41,-0.34 -3.03,-0.52 -3.03,-1.62 0,-0.93 1.06,-1.18 1.97,-1.18 1,0 2.04,0.37 2.16,1.56 h 1.52 c -0.12,-2.26 -1.76,-2.91 -3.8,-2.91 -1.62,0 -3.46,0.77 -3.46,2.64 0,1.87 1.53,2.28 3.03,2.62 1.5,0.34 3.04,0.54 3.04,1.72 0,1.18 -1.29,1.38 -2.23,1.38 -1.26,0 -2.44,-0.45 -2.5,-1.79 h -1.54 z"
     id="path2"
     style="fill:#ffffff" />
  <path
     d="m 542.59,94.65 c -0.02,2.08 -0.95,4.04 -2.55,5.36 -1.75,1.54 -4.02,2.35 -6.34,2.29 -6.87,0.02 -10.54,-4.88 -10.54,-13.45 0,-8.57 3.67,-13.48 10.53,-13.48 2.68,0 4.84,0.91 6.48,2.68 1.55,1.57 2.42,3.68 2.42,5.89 z m 5.36,11.53 V 58.43 h -5.36 v 16.42 h -0.13 c -2.42,-2.87 -5.63,-4.3 -9.62,-4.3 -4.33,0 -7.9,1.69 -10.79,5.02 -2.81,3.34 -4.25,7.72 -4.25,13.28 0,5.56 1.37,10 4.05,13.34 2.75,3.33 6.41,4.96 10.99,4.96 4.58,0 8.3,-2.16 10.14,-4.32 h 0.13 v 3.34 h 4.84 z m 30.77,-10.66 c -0.28,0.56 -0.58,1.11 -0.92,1.63 -0.36,0.61 -0.77,1.18 -1.25,1.7 -0.53,0.71 -1.17,1.33 -1.89,1.83 -1.93,1.05 -4.09,1.61 -6.28,1.63 -3.4,0 -6.02,-1.17 -7.85,-3.46 -1.83,-2.29 -2.68,-5.1 -2.75,-8.44 h 26.03 v -1.57 c 0,-5.69 -1.44,-10.14 -4.32,-13.39 -2.88,-3.25 -6.61,-4.91 -11.25,-4.91 -4.64,0 -8.48,1.7 -11.45,5.04 -2.96,3.34 -4.38,7.71 -4.38,13.27 0,5.56 1.5,10 4.51,13.34 3.01,3.33 6.87,4.96 11.58,4.96 7.06,0 11.9,-3.79 14.52,-8.83 l -4.32,-2.8 z m -20.8,-9.35 c 0.07,-2.67 1.01,-5.24 2.68,-7.33 1.78,-2.29 4.32,-3.47 7.65,-3.47 3.33,0 6.02,1.05 7.65,3.21 1.67,2.18 2.58,4.84 2.61,7.59 z m 35.77,-27.74 h -5.43 v 47.77 h 5.43 z m 4.11,35.97 c 0.79,7.52 5.56,12.75 14.73,12.75 4.38,0 7.72,-0.98 9.88,-3.01 2.23,-2.03 3.33,-4.38 3.33,-7.14 -0.07,-2.81 -0.89,-4.97 -2.62,-6.61 -1.63,-1.63 -4.71,-3.12 -9.22,-4.38 -4.25,-1.24 -6.93,-2.16 -8.11,-2.88 -1.15,-0.65 -1.84,-1.88 -1.78,-3.21 0,-2.62 2.55,-4.84 7.06,-4.84 4.51,0 7.46,2.23 8.83,6.61 l 4.64,-1.25 c -1.5,-6 -5.88,-9.91 -13.47,-9.91 -3.73,0 -6.67,0.98 -8.83,2.88 -2.16,1.9 -3.2,4.11 -3.2,6.66 0,5.04 3.07,7.65 11.64,10.01 4.12,1.11 6.8,2.16 8.04,3.01 1.31,0.85 1.97,2.16 1.96,3.92 0,3.34 -2.75,5.49 -8.24,5.49 -5.49,0 -8.96,-3.01 -9.62,-9.09 l -5.03,0.98 z m 45.59,0.06 c 2.09,7.59 7.89,12.68 16.35,12.68 4.65,0 8.44,-1.5 11.45,-4.46 3.01,-2.96 4.51,-6.93 4.51,-11.83 0,-4.58 -1.44,-8.24 -4.25,-11.05 -2.72,-2.77 -6.46,-4.3 -10.34,-4.23 -4.91,0 -8.63,1.9 -10.46,4.32 l -0.07,-0.06 2.62,-14.46 h 18.45 V 60.4 h -22.56 l -4.12,23.02 4.84,2.09 c 2.35,-3.66 5.75,-5.49 10.2,-5.49 6.28,0 10.4,4.05 10.4,10.79 0,6.74 -4.12,11.38 -10.66,11.38 -5.69,0 -9.41,-3.21 -11.18,-9.55 l -5.17,1.83 z m 57.23,11.71 V 83.74 c 0,-4.91 2.42,-8.31 7.46,-8.31 4.71,0 7.06,2.94 7.06,8.76 v 21.98 h 5.17 V 83.74 c 0,-5.24 2.81,-8.31 7.59,-8.31 4.78,0 7.07,2.94 7.07,8.76 v 21.98 h 5.16 V 82.56 c 0,-7.39 -4.64,-12.05 -11.97,-12.05 -4.46,0 -8.11,2.29 -9.75,5.1 h -0.13 c -1.64,-2.84 -4.78,-5.07 -9.16,-5.07 -3.67,0 -7.2,1.78 -8.83,4.32 h -0.13 v -3.34 h -4.84 v 34.67 h 5.3 z m 51.25,-34.68 h -5.36 v 34.66 h 5.36 z m 0.39,-13.08 h -6.15 v 6.08 h 6.15 z m 11.58,0 h -5.42 v 47.77 h 5.43 V 58.41 Z m 11.9,13.08 h -5.36 v 34.66 h 5.36 z m 0.39,-13.08 h -6.15 v 6.08 h 6.15 z m 19.92,43.88 c -6.08,0 -10.46,-4.84 -10.46,-13.47 0,-8.63 4.38,-13.48 10.46,-13.48 6.08,0 10.21,5.04 10.21,13.48 0,8.44 -4.38,13.47 -10.21,13.47 m 0.02,4.85 c 4.24,0.1 8.31,-1.67 11.12,-4.84 2.92,-3.2 4.34,-7.71 4.34,-13.47 0,-5.76 -1.51,-10.14 -4.51,-13.39 -2.75,-3.19 -6.78,-4.99 -10.99,-4.91 -4.25,-0.05 -8.32,1.74 -11.16,4.91 -3.07,3.27 -4.58,7.72 -4.58,13.39 0,5.67 1.5,10.27 4.46,13.47 2.96,3.2 6.72,4.83 11.29,4.83 m 25.47,-0.97 V 84.05 c 0,-5.43 3.54,-8.63 8.96,-8.63 5.42,0 7.98,3.21 7.98,9.68 v 21.06 h 5.3 V 83.39 c 0,-7.91 -4.97,-12.88 -12.5,-12.88 -3.92,0 -7.85,1.78 -9.74,4.32 h -0.16 v -3.34 h -5.21 v 34.67 h 5.38 z M 847.4,94.39 c 0.79,7.52 5.56,12.75 14.73,12.75 4.38,0 7.72,-0.98 9.88,-3.01 2.16,-2.03 3.33,-4.38 3.33,-7.14 -0.07,-2.81 -0.89,-4.97 -2.62,-6.61 -1.63,-1.63 -4.71,-3.12 -9.22,-4.38 -4.25,-1.24 -6.93,-2.16 -8.11,-2.88 -1.15,-0.65 -1.84,-1.88 -1.79,-3.21 0,-2.62 2.55,-4.84 7.07,-4.84 4.52,0 7.45,2.23 8.83,6.61 l 4.65,-1.25 c -1.5,-6 -5.88,-9.91 -13.47,-9.91 -3.73,0 -6.7,0.98 -8.83,2.88 -2.13,1.9 -3.21,4.12 -3.21,6.67 0,5.04 3.07,7.65 11.64,10.01 4.12,1.11 6.8,2.16 8.04,3.01 1.31,0.85 1.97,2.16 1.96,3.92 0,3.34 -2.75,5.49 -8.24,5.49 -5.49,0 -8.96,-3.01 -9.62,-9.09 l -5.03,0.97 z"
     id="path3"
     style="fill:#ffffff" />
  <path
     d="M 546.05,47.73 V 42.79 H 526.18 V 1.97 h -5.43 v 45.81 z m 29.1,0 V 24.41 c 0,-8.44 -4.97,-12.3 -13.01,-12.3 -7.26,0 -11.97,4.19 -13.08,10.27 l 4.84,1.37 c 0.98,-4.58 3.79,-6.86 8.44,-6.87 4.91,0 7.26,2.23 7.26,5.17 -0.26,2.09 -0.98,3.08 -3.8,4.19 -2.01,0.71 -4.06,1.31 -6.15,1.78 -8.43,2.14 -11.63,5.08 -11.63,10.83 0,5.75 4.05,9.88 11.71,9.88 5.49,0 9.29,-2.49 10.59,-4.78 h 0.13 v 3.83 z M 560.9,32.12 c 5.3,-1.5 8.31,-2.88 8.9,-4.12 h 0.13 v 8.62 c 0,4.12 -3.53,7.32 -9.82,7.32 -4.58,0 -6.87,-1.83 -6.87,-5.43 0,-3.07 1.7,-4.77 7.65,-6.41 m 58.62,2.37 c -0.29,2.47 -1.32,4.79 -2.94,6.67 -1.58,1.81 -3.88,2.81 -6.28,2.75 -6.54,0 -10.53,-5.1 -10.53,-13.47 0,-8.37 4.18,-13.47 10.46,-13.47 5.23,0 8.11,3.73 9.16,8.9 l 5.04,-1.05 c -0.59,-3.73 -2.14,-6.8 -4.78,-9.17 -2.64,-2.36 -5.69,-3.53 -9.42,-3.53 -4.3,-0.1 -8.43,1.72 -11.25,4.97 -3.01,3.27 -4.51,7.72 -4.51,13.34 0,5.62 1.44,10.21 4.38,13.47 2.94,3.27 6.74,4.84 11.38,4.84 7.65,0 13.34,-5.17 14.45,-13.21 z m 14.73,-21.39 h -5.36 v 34.69 h 5.36 V 13.09 Z M 634.63,0 h -6.15 v 6.09 h 6.15 V 0.01 Z m 5.85,35.65 c 0,8.7 4.58,13.08 12.23,13.08 1.79,0.02 3.56,-0.38 5.17,-1.18 1.11,-0.52 2.14,-1.18 3.08,-1.96 0.37,-0.35 0.7,-0.75 0.98,-1.17 h 0.13 v 3.36 h 5.24 V 13.09 h -5.3 v 21.52 c 0,5.75 -2.88,9.15 -8.11,9.15 -5.75,0 -8.04,-2.42 -8.04,-8.89 V 13.09 h -5.36 v 22.57 z m 34.71,2 c 0,6.74 2.75,10.07 9.29,10.07 h 2.88 v -5.14 h -2.59 c -3.4,0 -4.25,-1.44 -4.25,-5.56 V 17.86 H 689 v -4.78 h -8.56 V 4.61 h -5.1 v 8.48 h -4.97 v 4.78 h 4.84 v 19.79 z m 42.28,10.07 V 24.4 c 0,-8.44 -4.97,-12.3 -13.01,-12.3 -7.26,0 -11.97,4.19 -13.08,10.27 l 4.84,1.37 c 1,-4.57 3.81,-6.86 8.45,-6.86 4.91,0 7.26,2.23 7.26,5.17 -0.26,2.09 -0.98,3.08 -3.79,4.19 -2.01,0.71 -4.07,1.31 -6.15,1.78 -8.44,2.16 -11.64,5.1 -11.64,10.86 0,5.76 4.05,9.88 11.71,9.88 5.49,0 9.29,-2.49 10.59,-4.78 h 0.13 v 3.8 l 4.7,-0.05 z M 703.22,32.11 c 5.3,-1.5 8.31,-2.88 8.9,-4.12 h 0.13 v 8.62 c 0,4.12 -3.53,7.32 -9.82,7.32 -4.58,0 -6.87,-1.83 -6.87,-5.43 0,-3.07 1.7,-4.77 7.65,-6.41 m 21.29,5.58 c 0,6.74 2.75,10.07 9.29,10.07 h 2.88 v -5.17 h -2.61 c -3.4,0 -4.25,-1.44 -4.25,-5.56 V 17.85 h 8.5 v -4.78 h -8.57 V 4.61 h -5.1 v 8.48 h -4.97 v 4.78 h 4.84 v 19.82 z"
     id="path4"
     style="fill:#ffffff" />
  <path
     d="M 54.48,90.69 V 107.8 H 64.89 V 90.77 c 0,-6.46 4.92,-11.7 11.22,-11.7 6.3,0 11.22,5.17 11.22,11.7 V 107.8 H 97.66 V 90.77 c 0,-6.46 4.92,-11.7 11.22,-11.7 6.3,0 11.22,5.17 11.22,11.7 v 17.03 h 10.41 V 90.77 c 0,-12.43 -9.68,-22.44 -21.63,-22.44 -6.38,0 -12.43,2.91 -16.39,7.91 C 88.45,71.4 82.4,68.41 76.11,68.33 64.08,68.09 54.4,78.26 54.48,90.69 m -27.44,9.2 v 7.91 h 10.33 v -7.91 c 0,-19.61 8.48,-37.61 21.39,-46.09 9.52,-6.21 20.42,-6.54 31.4,-0.81 l 2.34,1.21 2.34,-1.21 c 13.08,-6.94 23.73,-3.31 30.51,0.89 13.24,8.48 22.2,26.88 22.2,46.01 v 7.91 h 10.33 v -7.91 c 0,-23 -10.73,-44.71 -27.2,-55.29 C 118.74,37.01 105.26,36.12 92.34,42.1 78.86,35.97 65.06,36.93 53.19,44.52 37.21,55.01 27.04,76.64 27.04,99.89 M 92.34,0.21 C 41.49,0.21 0,43.31 0,96.42 V 107.8 H 10.41 V 96.42 c 0,-47.06 36.81,-85.32 82.01,-85.32 45.2,0 82,38.26 82,85.31 v 11.38 h 10.41 V 96.41 c 0,-53.02 -41.48,-96.2 -92.49,-96.2"
     id="path5"
     style="fill:#ffffff" />
  <path
     d="m 215.34,93.03 c 0,-1.37 -0.48,-2.66 -1.45,-3.71 -0.97,-1.05 -2.34,-1.61 -3.96,-1.61 -4.03,0 -6.3,2.91 -6.3,8.07 0,5.16 2.18,8.15 6.3,8.15 1.61,0 2.91,-0.49 3.96,-1.45 1.05,-0.97 1.53,-2.18 1.53,-3.47 l -0.08,-5.97 z m 0.32,14.04 v -2.18 h -0.08 c -1.61,1.86 -3.79,2.82 -6.38,2.82 -2.99,0 -5.33,-1.05 -7.1,-3.23 -1.7,-2.18 -2.58,-5 -2.58,-8.64 0,-3.64 0.97,-6.46 2.82,-8.56 1.94,-2.18 4.2,-3.23 6.86,-3.23 2.42,0 4.44,0.97 6.05,2.82 h 0.08 v -9.36 h 4.12 v 29.62 l -3.79,-0.08 z"
     id="path6"
     style="fill:#ffffff" />
  <path
     d="m 238.51,93.83 c -0.16,-3.39 -2.1,-6.22 -6.05,-6.22 -1.94,0 -3.31,0.65 -4.44,1.94 -1.05,1.29 -1.61,2.66 -1.61,4.2 l 12.11,0.08 z m 3.47,8.39 c -1.7,3.15 -4.84,5.49 -9.28,5.49 -3.07,0 -5.65,-1.05 -7.59,-3.23 -1.94,-2.18 -2.91,-5 -2.91,-8.64 0,-3.64 0.97,-6.46 2.91,-8.56 1.94,-2.18 4.44,-3.23 7.43,-3.23 2.99,0 5.41,1.05 7.34,3.23 1.94,2.1 2.82,5 2.82,8.64 v 1.21 h -16.3 c 0.16,4.04 2.26,6.94 6.22,6.94 1.86,0 3.31,-0.48 4.28,-1.53 1.05,-1.05 1.29,-1.45 2.02,-2.58 l 3.07,2.26 z"
     id="path7"
     style="fill:#ffffff" />
  <path
     d="m 260.54,103.2 h 5.97 c 4.68,0 7.1,-1.13 7.1,-5 0,-3.63 -2.26,-4.76 -7.02,-4.76 h -6.05 v 9.77 z m 0,-13.4 h 6.86 c 3.39,0 5.08,-1.37 5.08,-4.2 0,-2.83 -1.94,-4.2 -5.17,-4.2 h -6.78 v 8.39 z m -4.2,17.27 V 77.45 h 11.78 c 2.58,0 4.76,0.73 6.3,2.26 1.53,1.45 2.34,3.31 2.34,5.57 0,2.66 -1.21,4.6 -3.63,5.81 v 0.08 c 2.58,0.97 4.76,3.39 4.76,7.02 0,5.89 -3.55,8.88 -10.65,8.88 z"
     id="path8"
     style="fill:#ffffff" />
  <path
     d="m 284.19,100.94 c 0,2.1 1.37,3.07 4.04,3.07 3.79,0 5.89,-1.86 5.89,-4.2 V 94.8 h -0.08 c -0.24,0.65 -0.97,1.21 -5.41,2.42 -3.47,0.97 -4.44,2.02 -4.44,3.71 m 10.33,6.13 v -2.34 h -0.08 c -0.32,0.65 -1.05,1.29 -2.18,2.02 -1.13,0.65 -2.58,1.05 -4.44,1.05 -5.08,0 -7.67,-2.74 -7.67,-6.46 0,-3.72 2.1,-5.65 7.51,-6.94 2.42,-0.65 4.04,-1.13 4.92,-1.61 0.89,-0.48 1.29,-1.13 1.29,-2.02 0,-1.7 -1.45,-3.07 -4.44,-3.07 -2.83,0 -4.52,1.37 -5.17,4.2 l -3.63,-1.29 c 0.81,-3.87 3.87,-6.54 8.72,-6.54 5.25,0 8.72,2.58 8.72,8.23 v 14.77 z"
     id="path9"
     style="fill:#ffffff" />
  <path
     d="M 302.83,107.07 V 84.63 h 3.96 v 2.42 h 0.08 c 0.89,-1.7 2.74,-2.82 4.6,-2.82 0.73,0 1.45,0.16 2.02,0.4 l -0.73,4.04 c -0.56,-0.24 -1.13,-0.32 -1.69,-0.32 -2.75,0 -4.04,1.86 -4.04,5.49 V 107 l -4.2,0.08 z"
     id="path10"
     style="fill:#ffffff" />
  <path
     d="m 333.58,99.32 c -0.81,5.17 -4.28,8.39 -9.52,8.39 -2.99,0 -5.49,-1.05 -7.43,-3.15 -1.94,-2.1 -2.82,-5 -2.82,-8.64 0,-3.64 0.97,-6.62 2.99,-8.63 2.02,-2.1 4.44,-3.15 7.35,-3.15 2.58,0 4.68,0.73 6.38,2.34 1.69,1.53 2.74,3.55 2.99,5.97 l -4.04,0.65 c -0.48,-2.99 -2.18,-5.17 -5.41,-5.17 -3.79,0 -6.22,2.99 -6.22,8.07 0,5.08 2.34,8.15 6.3,8.15 3.15,0 4.84,-2.42 5.41,-5.65 l 4.04,0.81 z"
     id="path11"
     style="fill:#ffffff" />
  <path
     d="m 351.83,93.83 c -0.16,-3.39 -2.1,-6.22 -6.05,-6.22 -1.94,0 -3.31,0.65 -4.44,1.94 -1.05,1.29 -1.61,2.66 -1.61,4.2 l 12.11,0.08 z m 3.47,8.39 c -1.7,3.15 -4.84,5.49 -9.28,5.49 -3.07,0 -5.65,-1.05 -7.59,-3.23 -1.94,-2.18 -2.91,-5 -2.91,-8.64 0,-3.64 0.97,-6.46 2.91,-8.56 1.94,-2.18 4.44,-3.23 7.43,-3.23 2.99,0 5.41,1.05 7.34,3.23 1.94,2.1 2.82,5 2.82,8.64 v 1.21 H 339.8 c 0.16,4.04 2.26,6.94 6.22,6.94 1.86,0 3.31,-0.48 4.28,-1.53 1.05,-1.05 1.29,-1.45 2.02,-2.58 l 2.99,2.26 z"
     id="path12"
     style="fill:#ffffff" />
  <rect
     x="358.76999"
     y="77.450005"
     width="4.1999998"
     height="29.620001"
     id="rect12"
     style="fill:#ffffff" />
  <path
     d="m 382.09,95.85 c 0,-5.08 -2.5,-8.07 -6.05,-8.07 -3.55,0 -6.21,2.91 -6.21,8.07 0,5.16 2.5,8.15 6.21,8.15 3.71,0 6.05,-3.07 6.05,-8.15 m -13.4,8.72 c -1.94,-2.1 -2.91,-5 -2.91,-8.72 0,-3.72 0.97,-6.54 2.99,-8.64 2.02,-2.1 4.44,-3.15 7.34,-3.15 2.9,0 5.25,1.05 7.18,3.15 2.02,2.1 2.99,5 2.99,8.64 0,3.64 -0.97,6.62 -2.91,8.72 -1.94,2.1 -4.28,3.15 -7.27,3.15 -2.99,0 -5.49,-1.05 -7.42,-3.15"
     id="path13"
     style="fill:#ffffff" />
  <path
     d="M 388.95,107.07 V 84.63 h 4.04 v 2.18 h 0.08 c 1.21,-1.53 3.63,-2.82 6.13,-2.82 4.92,0 8.07,3.15 8.07,8.39 v 14.69 h -4.12 V 93.59 c 0,-3.87 -1.53,-5.73 -4.76,-5.73 -3.23,0 -5.33,1.94 -5.33,5.17 v 14.12 l -4.12,-0.08 z"
     id="path14"
     style="fill:#ffffff" />
  <path
     d="m 414.7,100.94 c 0,2.1 1.37,3.07 4.04,3.07 3.79,0 5.89,-1.86 5.89,-4.2 V 94.8 h -0.08 c -0.24,0.65 -0.97,1.21 -5.41,2.42 -3.55,0.97 -4.44,2.02 -4.44,3.71 m 10.33,6.13 v -2.34 h -0.08 c -0.32,0.65 -1.05,1.29 -2.18,2.02 -1.13,0.65 -2.58,1.05 -4.44,1.05 -5.08,0 -7.67,-2.74 -7.67,-6.46 0,-3.72 2.1,-5.65 7.51,-6.94 2.42,-0.65 4.04,-1.13 4.92,-1.61 0.89,-0.48 1.29,-1.13 1.29,-2.02 0,-1.7 -1.45,-3.07 -4.44,-3.07 -2.83,0 -4.52,1.37 -5.17,4.2 l -3.63,-1.29 c 0.81,-3.87 3.87,-6.54 8.72,-6.54 5.25,0 8.72,2.58 8.72,8.23 v 14.77 z"
     id="path15"
     style="fill:#ffffff" />
  <path
     d="m 205.66,14.73 h 7.26 c 3.31,0 5.73,-1.94 5.73,-5.33 0,-3.63 -2.42,-5.33 -5.81,-5.33 h -7.18 v 10.65 z m -4.2,15.09 V 0.21 h 11.62 c 2.99,0 5.41,0.81 7.27,2.42 1.86,1.61 2.74,3.87 2.74,6.78 0,5.73 -3.87,9.2 -9.93,9.2 h -7.51 v 11.22 h -4.2 z"
     id="path16"
     style="fill:#ffffff" />
  <rect
     x="225.35001"
     y="0.21000001"
     width="4.1999998"
     height="29.620001"
     id="rect16"
     style="fill:#ffffff" />
  <path
     d="m 237.13,23.69 c 0,2.1 1.37,3.07 4.04,3.07 3.79,0 5.89,-1.86 5.89,-4.2 v -5.01 h -0.08 c -0.24,0.65 -0.97,1.21 -5.41,2.42 -3.55,0.97 -4.44,2.02 -4.44,3.71 m 10.33,6.13 v -2.34 h -0.08 c -0.32,0.65 -1.05,1.29 -2.18,2.02 -1.13,0.65 -2.58,1.05 -4.44,1.05 -5.08,0 -7.67,-2.74 -7.67,-6.46 0,-3.72 2.1,-5.65 7.51,-6.94 2.42,-0.65 4.04,-1.13 4.92,-1.61 0.89,-0.49 1.29,-1.13 1.29,-2.02 0,-1.7 -1.45,-3.07 -4.44,-3.07 -2.83,0 -4.52,1.37 -5.17,4.2 l -3.63,-1.29 c 0.81,-3.87 3.87,-6.54 8.72,-6.54 5.25,0 8.72,2.58 8.72,8.23 v 14.77 z"
     id="path17"
     style="fill:#ffffff" />
  <polygon
     points="282.74,12.71 282.74,16.5 270.06,16.5 270.06,25.94 283.95,25.94 283.95,29.82 265.79,29.82 265.79,0.2 283.87,0.2 283.87,4.15 270.06,4.15 270.06,12.71 "
     id="polygon17"
     style="fill:#ffffff"
     transform="translate(0,0.01)" />
  <path
     d="m 290.48,21.43 c 0.4,3.71 2.34,5.49 5.81,5.49 3.23,0 5.08,-1.29 5.08,-3.23 0,-0.97 -0.4,-1.7 -1.21,-2.18 -0.81,-0.48 -2.5,-1.13 -5.08,-1.86 -5.41,-1.45 -7.51,-3.15 -7.51,-6.54 0,-1.7 0.73,-3.23 2.1,-4.52 1.45,-1.29 3.39,-1.94 5.89,-1.94 5.01,0 7.91,2.58 8.96,6.54 l -3.55,0.97 c -0.89,-2.66 -2.66,-4.04 -5.41,-4.04 -2.75,0 -4.2,1.29 -4.2,2.82 0,0.81 0.4,1.45 1.13,1.94 0.73,0.4 2.5,1.05 5.33,1.86 2.83,0.81 4.68,1.7 5.73,2.82 1.05,1.05 1.61,2.42 1.61,4.2 0.08,1.78 -0.65,3.31 -2.18,4.68 -1.45,1.29 -3.63,2.02 -6.54,2.02 -2.91,0 -5.33,-0.73 -6.94,-2.34 -1.61,-1.53 -2.5,-3.55 -2.83,-5.81 l 3.79,-0.89 z"
     id="path18"
     style="fill:#ffffff" />
  <path
     d="m 309.45,11.02 h -3.31 V 7.39 h 3.39 V 1.9 h 3.96 v 5.49 h 5.57 v 3.63 h -5.57 V 22.4 c 0,2.5 0.56,3.47 2.91,3.47 h 1.7 v 3.96 h -2.02 c -4.84,0 -6.62,-2.26 -6.62,-7.02 V 11.03 Z"
     id="path19"
     style="fill:#ffffff" />
  <path
     d="M 322.45,29.83 V 7.39 h 3.96 v 2.42 h 0.08 c 0.89,-1.7 2.74,-2.82 4.6,-2.82 0.73,0 1.45,0.16 2.02,0.4 l -0.73,4.04 c -0.56,-0.24 -1.13,-0.32 -1.69,-0.32 -2.75,0 -4.04,1.86 -4.04,5.49 v 13.16 l -4.2,0.08 z"
     id="path20"
     style="fill:#ffffff" />
  <path
     d="m 338.35,23.69 c 0,2.1 1.37,3.07 4.04,3.07 3.79,0 5.89,-1.86 5.89,-4.2 v -5.01 h -0.08 c -0.24,0.65 -0.97,1.21 -5.41,2.42 -3.55,0.97 -4.44,2.02 -4.44,3.71 m 10.33,6.13 v -2.34 h -0.08 c -0.32,0.65 -1.05,1.29 -2.18,2.02 -1.13,0.65 -2.58,1.05 -4.44,1.05 -5.08,0 -7.67,-2.74 -7.67,-6.46 0,-3.72 2.1,-5.65 7.51,-6.94 2.42,-0.65 4.04,-1.13 4.92,-1.61 0.89,-0.49 1.29,-1.13 1.29,-2.02 0,-1.7 -1.45,-3.07 -4.44,-3.07 -2.83,0 -4.52,1.37 -5.17,4.2 l -3.63,-1.29 c 0.81,-3.87 3.87,-6.54 8.72,-6.54 5.25,0 8.72,2.58 8.72,8.23 v 14.77 z"
     id="path21"
     style="fill:#ffffff" />
  <path
     d="m 357.88,11.02 h -3.31 V 7.39 h 3.39 V 1.9 h 3.96 v 5.49 h 5.57 v 3.63 h -5.57 V 22.4 c 0,2.5 0.56,3.47 2.91,3.47 h 1.7 v 3.96 h -2.02 c -4.84,0 -6.62,-2.26 -6.62,-7.02 V 11.03 Z"
     id="path22"
     style="fill:#ffffff" />
  <path
     d="m 384.84,16.59 c -0.16,-3.39 -2.1,-6.22 -6.05,-6.22 -1.94,0 -3.31,0.65 -4.44,1.94 -1.05,1.29 -1.61,2.66 -1.61,4.2 l 12.11,0.08 z m 3.47,8.39 c -1.7,3.15 -4.84,5.49 -9.28,5.49 -3.07,0 -5.65,-1.05 -7.59,-3.23 -1.94,-2.18 -2.91,-5 -2.91,-8.64 0,-3.64 0.97,-6.46 2.91,-8.56 1.94,-2.18 4.44,-3.23 7.43,-3.23 2.99,0 5.41,1.05 7.34,3.23 1.94,2.1 2.82,5 2.82,8.64 v 1.21 h -16.14 c 0.16,4.04 2.26,6.94 6.22,6.94 1.86,0 3.31,-0.48 4.28,-1.53 1.05,-1.05 1.29,-1.45 2.02,-2.58 l 2.91,2.26 z"
     id="path23"
     style="fill:#ffffff" />
  <path
     d="m 407.03,15.7 c 0,-1.37 -0.48,-2.5 -1.53,-3.63 -0.97,-1.05 -2.26,-1.53 -3.95,-1.53 -4.04,0 -6.46,2.99 -6.46,8.07 0,5.08 2.42,8.15 6.46,8.15 1.53,0 2.91,-0.49 3.87,-1.37 1.05,-0.97 1.53,-2.1 1.53,-3.39 l 0.08,-6.29 z m -11.06,16.46 c 1.21,2.66 2.74,4.2 5.73,4.2 3.31,0 5.41,-2.02 5.41,-5.57 v -2.91 h -0.08 c -1.29,1.7 -3.31,2.58 -5.97,2.58 -2.91,0 -5.33,-1.05 -7.18,-3.15 -1.86,-2.18 -2.74,-5 -2.74,-8.64 0,-3.64 0.97,-6.46 2.82,-8.56 1.94,-2.18 4.28,-3.23 7.1,-3.23 2.58,0 4.68,0.97 6.22,2.82 h 0.08 V 7.52 h 3.96 v 22.6 c 0,6.46 -3.63,9.93 -9.44,9.93 -4.6,0 -7.75,-2.34 -9.04,-5.89 l 3.15,-2.02 z"
     id="path24"
     style="fill:#ffffff" />
  <rect
     x="416.23001"
     y="7.3900003"
     width="4.1199999"
     height="22.440001"
     id="rect24"
     style="fill:#ffffff" />
  <path
     d="m 443.84,22.08 c -0.81,5.17 -4.28,8.39 -9.52,8.39 -2.99,0 -5.49,-1.05 -7.43,-3.15 -1.94,-2.1 -2.82,-5 -2.82,-8.64 0,-3.64 0.97,-6.62 2.99,-8.63 2.02,-2.1 4.44,-3.15 7.35,-3.15 2.58,0 4.68,0.73 6.38,2.34 1.69,1.53 2.74,3.55 2.99,5.97 l -4.04,0.65 c -0.48,-2.99 -2.18,-5.17 -5.41,-5.17 -3.79,0 -6.22,2.99 -6.22,8.07 0,5.08 2.34,8.15 6.3,8.15 3.15,0 4.84,-2.42 5.41,-5.65 l 4.04,0.81 z"
     id="path25"
     style="fill:#ffffff" />
  <polygon
     points="377.73,0.2 381.13,5.36 377.57,5.36 373.05,0.2 "
     id="polygon25"
     style="fill:#ffffff"
     transform="translate(0,0.01)" />
  <rect
     x="416.07001"
     y="0.21000001"
     width="4.4400001"
     height="4.3600001"
     id="rect25"
     style="fill:#ffffff" />
  <polygon
     points="230.35,39.67 230.35,69.29 226.16,69.29 226.16,46.77 226.08,46.77 216.47,69.29 215.34,69.29 205.74,46.77 205.66,46.77 205.66,69.29 201.46,69.29 201.46,39.67 206.87,39.67 215.91,61.21 215.99,61.21 225.03,39.67 "
     id="polygon26"
     style="fill:#ffffff"
     transform="translate(0,0.01)" />
  <path
     d="m 249.8,56.14 c -0.16,-3.39 -2.1,-6.22 -6.05,-6.22 -1.94,0 -3.31,0.65 -4.44,1.94 -1.05,1.29 -1.61,2.66 -1.61,4.2 l 12.11,0.08 z m 3.47,8.39 c -1.7,3.15 -4.84,5.49 -9.28,5.49 -3.07,0 -5.65,-1.05 -7.59,-3.23 -1.94,-2.18 -2.91,-5 -2.91,-8.64 0,-3.64 0.97,-6.46 2.91,-8.56 1.94,-2.18 4.44,-3.23 7.43,-3.23 2.99,0 5.41,1.05 7.34,3.23 1.94,2.1 2.82,5 2.82,8.64 v 1.21 h -16.38 c 0.16,4.04 2.26,6.94 6.22,6.94 1.86,0 3.31,-0.48 4.28,-1.53 1.05,-1.05 1.29,-1.45 2.02,-2.58 l 3.15,2.26 z"
     id="path26"
     style="fill:#ffffff" />
  <path
     d="m 258.44,50.49 h -3.31 v -3.63 h 3.39 v -5.49 h 3.96 v 5.49 h 5.57 v 3.63 h -5.57 v 11.38 c 0,2.5 0.56,3.47 2.91,3.47 h 1.7 v 3.96 h -2.02 c -4.84,0 -6.62,-2.26 -6.62,-7.02 V 50.5 Z"
     id="path27"
     style="fill:#ffffff" />
  <path
     d="M 271.44,69.3 V 46.86 h 3.96 v 2.42 h 0.08 c 0.89,-1.7 2.74,-2.82 4.6,-2.82 0.73,0 1.45,0.16 2.02,0.4 l -0.73,4.04 c -0.57,-0.24 -1.13,-0.32 -1.7,-0.32 -2.75,0 -4.04,1.86 -4.04,5.49 v 13.16 l -4.2,0.08 z"
     id="path28"
     style="fill:#ffffff" />
  <path
     d="m 298.88,58.08 c 0,-5.08 -2.5,-8.07 -6.05,-8.07 -3.55,0 -6.21,2.91 -6.21,8.07 0,5.16 2.5,8.15 6.21,8.15 3.71,0 6.05,-2.99 6.05,-8.15 m -13.56,8.72 c -1.94,-2.1 -2.91,-5 -2.91,-8.72 0,-3.72 0.97,-6.54 2.99,-8.64 2.02,-2.1 4.44,-3.15 7.34,-3.15 2.9,0 5.25,1.05 7.18,3.15 2.02,2.1 2.99,5 2.99,8.64 0,3.64 -0.97,6.62 -2.91,8.72 -1.94,2.1 -4.28,3.15 -7.27,3.15 -2.99,0 -5.41,-1.05 -7.42,-3.15"
     id="path29"
     style="fill:#ffffff" />
  <path
     d="m 309.77,61.47 c 0,1.29 0.48,2.42 1.53,3.39 1.05,0.97 2.34,1.37 3.95,1.37 4.04,0 6.46,-2.99 6.46,-8.15 0,-5.16 -2.42,-8.07 -6.46,-8.07 -1.61,0 -2.99,0.48 -3.95,1.53 -0.97,1.05 -1.45,2.26 -1.45,3.63 z m -4.04,15.01 V 46.86 h 3.96 v 2.18 h 0.08 c 0.32,-0.4 0.65,-0.73 1.13,-1.13 0.89,-0.73 2.99,-1.7 5.17,-1.7 2.74,0 5,1.13 6.94,3.23 1.94,2.18 2.91,5 2.91,8.56 0,3.56 -0.97,6.54 -2.74,8.64 -1.86,2.1 -4.2,3.15 -7.02,3.15 -3.07,0 -5.33,-1.53 -6.22,-2.82 h -0.08 v 9.36 h -4.12 v 0.16 z"
     id="path30"
     style="fill:#ffffff" />
  <path
     d="m 344.24,58.08 c 0,-5.08 -2.5,-8.07 -6.05,-8.07 -3.55,0 -6.21,2.91 -6.21,8.07 0,5.16 2.5,8.15 6.21,8.15 3.71,0 6.05,-2.99 6.05,-8.15 m -13.48,8.72 c -1.94,-2.1 -2.91,-5 -2.91,-8.72 0,-3.72 0.97,-6.54 2.99,-8.64 2.02,-2.1 4.44,-3.15 7.34,-3.15 2.9,0 5.25,1.05 7.18,3.15 2.02,2.1 2.99,5 2.99,8.64 0,3.64 -0.97,6.62 -2.91,8.72 -1.94,2.1 -4.28,3.15 -7.27,3.15 -2.99,0 -5.49,-1.05 -7.42,-3.15"
     id="path31"
     style="fill:#ffffff" />
  <rect
     x="351.10001"
     y="39.679996"
     width="4.1999998"
     height="29.620001"
     id="rect31"
     style="fill:#ffffff" />
  <path
     d="m 370.95,50.49 h -3.31 v -3.63 h 3.39 v -5.49 h 3.96 v 5.49 h 5.57 v 3.63 h -5.57 v 11.38 c 0,2.5 0.56,3.47 2.91,3.47 h 1.7 v 3.96 h -2.02 c -4.84,0 -6.62,-2.26 -6.62,-7.02 V 50.5 Z"
     id="path32"
     style="fill:#ffffff" />
  <rect
     x="359.82001"
     y="46.859997"
     width="4.1199999"
     height="22.440001"
     id="rect32"
     style="fill:#ffffff" />
  <rect
     x="359.64999"
     y="39.679996"
     width="4.4400001"
     height="4.3600001"
     id="rect33"
     style="fill:#ffffff" />
  <path
     d="m 385.97,63.24 c 0,2.1 1.37,3.07 4.04,3.07 3.79,0 5.89,-1.86 5.89,-4.2 V 57.1 h -0.08 c -0.24,0.65 -0.97,1.21 -5.41,2.42 -3.55,0.97 -4.44,1.94 -4.44,3.71 m 10.33,6.05 v -2.34 h -0.08 c -0.32,0.65 -1.05,1.29 -2.18,2.02 -1.13,0.65 -2.58,1.05 -4.44,1.05 -5.08,0 -7.67,-2.74 -7.67,-6.46 0,-3.72 2.1,-5.65 7.51,-6.94 2.42,-0.65 4.04,-1.13 4.92,-1.61 0.89,-0.49 1.29,-1.13 1.29,-2.02 0,-1.7 -1.45,-3.07 -4.44,-3.07 -2.83,0 -4.52,1.37 -5.17,4.2 l -3.63,-1.29 c 0.81,-3.87 3.87,-6.54 8.72,-6.54 5.25,0 8.72,2.58 8.72,8.23 v 14.77 z"
     id="path33"
     style="fill:#ffffff" />
  <polygon
     points="391.29,39.67 394.68,44.83 391.13,44.83 386.45,39.67 "
     id="polygon33"
     style="fill:#ffffff"
     transform="translate(0,0.01)" />
</svg>
