<?xml version="1.0" encoding="UTF-8" standalone="no"?>
<!-- Created with Inkscape (http://www.inkscape.org/) -->

<svg
   width="94.683792mm"
   height="28.350111mm"
   viewBox="0 0 94.683792 28.350111"
   version="1.1"
   id="svg1"
   xmlns="http://www.w3.org/2000/svg"
   xmlns:svg="http://www.w3.org/2000/svg">
  <defs
     id="defs1" />
  <g
     id="layer1"
     transform="translate(-50.535411,-106.89166)">
    <path
       d="m 111.64623,119.47525 h 0.42862 v -2.82046 h 0.0106 l 1.06362,2.82046 h 0.38629 l 1.06363,-2.82046 h 0.0106 v 2.82046 h 0.42333 v -3.39196 h -0.61648 l -1.0742,2.84956 -1.06363,-2.84956 h -0.61912 l -0.0106,3.39196 z m 5.62768,-0.78052 c -0.0714,0.32014 -0.30427,0.47889 -0.63764,0.47889 -0.53711,0 -0.77788,-0.37835 -0.76465,-0.80698 h 1.83886 c 0.0238,-0.59002 -0.24077,-1.40493 -1.11125,-1.40493 -0.6694,0 -1.15359,0.53975 -1.15359,1.27793 0.0238,0.75142 0.39423,1.29117 1.18005,1.29117 0.55033,0 0.94456,-0.29369 1.05039,-0.83608 z m -1.397,-0.68527 c 0.0291,-0.37571 0.28046,-0.69321 0.70909,-0.69321 0.38629,0 0.70114,0.30691 0.70908,0.69321 z m 2.68553,-1.72509 h -0.40482 v 0.73554 h -0.4101 v 0.35455 h 0.41804 v 1.56368 c 0,0.45244 0.16669,0.53711 0.58473,0.53711 h 0.29633 v -0.35454 h -0.18521 c -0.25135,0 -0.30427,-0.0344 -0.30427,-0.21961 v -1.53194 h 0.48948 v -0.35454 h -0.48418 v -0.73554 z m 0.76993,3.18823 h 0.40482 v -1.09273 c 0,-0.62177 0.23547,-0.99219 0.889,-0.99219 v -0.42862 c -0.43657,-0.0132 -0.70909,0.17992 -0.90223,0.57415 h -0.0106 v -0.51859 h -0.381 v 2.45534 z m 1.32292,-1.22237 c 0,0.71702 0.41275,1.28323 1.19062,1.28323 0.77788,0 1.19063,-0.56621 1.19063,-1.28323 0,-0.71702 -0.41275,-1.28588 -1.19063,-1.28588 -0.77787,0 -1.19062,0.55827 -1.19062,1.28323 m 0.42598,-0.005 c 0,-0.59796 0.34396,-0.93133 0.76464,-0.93133 0.42069,0 0.76465,0.33337 0.76465,0.93133 0,0.59796 -0.34131,0.93398 -0.76465,0.93398 -0.42333,0 -0.76464,-0.33073 -0.76464,-0.92604 m 4.21217,-0.0265 c 0,0.47889 -0.18521,0.94456 -0.73555,0.94456 -0.55033,0 -0.77258,-0.44715 -0.77258,-0.93133 0,-0.48419 0.20902,-0.92604 0.75142,-0.92604 0.54239,0 0.75935,0.44714 0.75935,0.90752 m -1.89971,2.19339 h 0.40482 v -1.26735 h 0.0106 c 0.17992,0.29104 0.53975,0.38629 0.7911,0.38629 0.75142,0 1.12184,-0.59002 1.12184,-1.27794 0,-0.68791 -0.37571,-1.29116 -1.12977,-1.29116 -0.33603,0 -0.65088,0.11906 -0.78317,0.38893 h -0.0106 v -0.33073 h -0.40482 v 3.39461 z m 2.55588,-2.16694 c 0,0.71703 0.41275,1.28323 1.19062,1.28323 0.77788,0 1.19063,-0.5662 1.19063,-1.28323 0,-0.71702 -0.41275,-1.28587 -1.19063,-1.28587 -0.77787,0 -1.19062,0.56092 -1.19062,1.28587 m 0.42862,0 c 0,-0.59795 0.34132,-0.93133 0.76465,-0.93133 0.42333,0 0.76464,0.33338 0.76464,0.93133 0,0.59796 -0.34395,0.92605 -0.76464,0.92605 -0.42069,0 -0.76465,-0.33073 -0.76465,-0.92605 m 2.3204,1.22503 h 0.40481 V 116.078 h -0.40481 z m 0.89429,0 h 0.40481 v -2.45534 h -0.40481 z m 0.40481,-3.39196 h -0.40481 v 0.49477 h 0.40481 z m 1.05569,0.19843 h -0.40481 v 0.73555 h -0.41804 v 0.35454 h 0.41804 v 1.56633 c 0,0.45244 0.16669,0.53711 0.58473,0.53711 h 0.30956 v -0.35455 h -0.18521 c -0.25135,0 -0.30427,-0.0344 -0.30427,-0.2196 v -1.53194 h 0.48948 v -0.35454 h -0.48948 v -0.73819 z m 2.34156,2.33628 c 0,0.22225 -0.2196,0.55562 -0.74877,0.55562 -0.24606,0 -0.47096,-0.0952 -0.47096,-0.35454 0,-0.29898 0.22755,-0.39423 0.49477,-0.44186 0.26723,-0.0476 0.57415,-0.0529 0.73025,-0.16668 v 0.40746 z m 0.65617,0.53181 c -0.037,0.0159 -0.0767,0.0238 -0.11906,0.0238 -0.127,0 -0.127,-0.0847 -0.127,-0.27517 v -1.25677 c 0,-0.57414 -0.4789,-0.67468 -0.92075,-0.67468 -0.54769,0 -1.016,0.21431 -1.03982,0.8255 h 0.40482 c 0.0185,-0.35455 0.26987,-0.46567 0.61383,-0.46567 0.25665,0 0.54504,0.0556 0.54504,0.40746 0,0.30427 -0.381,0.27516 -0.8255,0.36248 -0.41804,0.0794 -0.8255,0.19843 -0.8255,0.75406 0,0.48948 0.36513,0.68792 0.81227,0.68792 0.33073,0.0106 0.65088,-0.12965 0.86519,-0.381 0,0.26722 0.13229,0.381 0.34131,0.381 0.10054,0.005 0.20109,-0.0185 0.2884,-0.0662 l -0.0106,-0.32544 z m -1.21444,-2.46856 h 0.30427 l -0.40746,-0.67998 h -0.51858 z m 3.02948,0.61647 c -0.0132,-0.40216 0.18521,-0.83608 0.65617,-0.83608 0.33866,-0.0212 0.62971,0.23813 0.65087,0.57679 0,0.0106 0,0.0212 0,0.0318 0,0.46567 -0.29104,0.67469 -0.85989,1.02394 -0.47361,0.29633 -0.87842,0.57944 -0.94457,1.37848 h 2.19869 v -0.35454 h -1.72773 c 0.0794,-0.41804 0.52123,-0.63236 0.94457,-0.889 0.42333,-0.25665 0.81227,-0.56356 0.81227,-1.15623 0,-0.62706 -0.46567,-0.96838 -1.05305,-0.96838 -0.70908,0 -1.11654,0.508 -1.08214,1.19063 h 0.40746 z m 2.02671,0.52123 c 0,0.74084 0.0661,1.70921 1.12183,1.70921 1.05569,0 1.12184,-0.96837 1.12184,-1.70921 0,-0.74083 -0.0661,-1.7145 -1.12184,-1.7145 -1.05568,0 -1.12183,0.96838 -1.12183,1.7145 m 0.42598,-0.003 c 0,-0.50006 0,-1.35467 0.69321,-1.35467 0.6932,0 0.6932,0.85461 0.6932,1.35467 0,0.50006 0,1.35996 -0.69056,1.35996 -0.69056,0 -0.69321,-0.85461 -0.69321,-1.35732 m 2.95805,0.0714 c 0.0794,-0.008 0.1561,-0.0132 0.23547,-0.0132 0.39953,0 0.71703,0.22225 0.71703,0.64559 0,0.42333 -0.33867,0.65087 -0.73025,0.65087 -0.46038,0 -0.70909,-0.30427 -0.71703,-0.74083 h -0.40481 c -0.0132,0.69321 0.43656,1.09802 1.12184,1.09802 0.6297,0 1.15887,-0.35454 1.15887,-1.02659 0,-0.40216 -0.19844,-0.7276 -0.60854,-0.81756 v -0.0106 c 0.26987,-0.11642 0.44979,-0.37571 0.46567,-0.6694 0.008,-0.62177 -0.43128,-0.90223 -1.0213,-0.90223 -0.67468,0 -1.016,0.44715 -1.03981,1.08744 h 0.40481 c 0,-0.39423 0.1958,-0.73289 0.63765,-0.73289 0.34131,0 0.59796,0.1905 0.59796,0.54239 0,0.3519 -0.29898,0.55033 -0.64294,0.55033 h -0.17462 z m 1.69333,-0.0714 c 0,0.74084 0.0661,1.70921 1.12183,1.70921 1.05569,0 1.12184,-0.96837 1.12184,-1.70921 0,-0.74083 -0.0661,-1.7145 -1.12184,-1.7145 -1.05569,0 -1.12183,0.96838 -1.12183,1.7145 m 0.42862,0 c 0,-0.50006 0.005,-1.35466 0.69321,-1.35466 0.68792,0 0.69321,0.8546 0.69321,1.35466 0,0.50007 -0.005,1.35996 -0.69585,1.35996 -0.69057,0 -0.69321,-0.8546 -0.69321,-1.35731"
       id="path1"
       style="fill:#ffffff;stroke-width:0.264583" />
    <path
       d="m 114.47462,112.58021 c -0.10318,-0.72232 -0.68791,-1.10332 -1.397,-1.10332 -1.0451,0 -1.60602,0.80169 -1.60602,1.78594 0,0.98425 0.51329,1.76477 1.56634,1.76477 0.8546,0 1.38112,-0.51329 1.46843,-1.35731 h -0.45243 c -0.0423,0.56092 -0.38365,0.97896 -0.97896,0.97896 -0.81227,0 -1.15359,-0.64559 -1.15359,-1.41817 0,-0.70908 0.34132,-1.37319 1.1483,-1.37319 0.4736,0 0.8546,0.23548 0.94456,0.72232 h 0.45508 z m 0.27517,1.14564 c 0,0.71702 0.41275,1.28058 1.19062,1.28058 0.77788,0 1.19328,-0.56356 1.19328,-1.28058 0,-0.71702 -0.41275,-1.28852 -1.19328,-1.28852 -0.78052,0 -1.19062,0.56621 -1.19062,1.28852 m 0.42862,0 c 0,-0.59796 0.34396,-0.93133 0.76465,-0.93133 0.42069,0 0.76465,0.33073 0.76465,0.93133 0,0.60061 -0.34132,0.92604 -0.76465,0.92604 -0.42333,0 -0.76465,-0.33073 -0.76465,-0.92604 m 2.30717,1.22502 h 0.40481 v -1.52929 c 0.0212,-0.3466 0.30692,-0.61912 0.65352,-0.62177 0.36248,0 0.46038,0.22754 0.46038,0.54504 v 1.60338 h 0.40481 v -1.5293 c 0,-0.381 0.25136,-0.62706 0.64029,-0.62706 0.38894,0 0.47361,0.23548 0.47361,0.54504 v 1.61132 h 0.40481 v -1.79652 c 0,-0.508 -0.32808,-0.70909 -0.81756,-0.70909 -0.31221,0 -0.60061,0.15611 -0.76994,0.41804 -0.10054,-0.29898 -0.37571,-0.41804 -0.67469,-0.41804 -0.32014,-0.0106 -0.62177,0.14817 -0.79375,0.41804 h -0.005 v -0.37041 h -0.37835 v 2.45533 z m 5.82877,-1.24354 c 0,0.4789 -0.18521,0.94456 -0.73819,0.94456 -0.55297,0 -0.77258,-0.44714 -0.77258,-0.93133 0,-0.48419 0.20902,-0.92604 0.75142,-0.92604 0.54239,0 0.762,0.44714 0.762,0.90752 m -1.89971,2.19339 h 0.40481 v -1.27264 h 0.0106 c 0.17991,0.28839 0.54239,0.38364 0.79375,0.38364 0.75141,0 1.12183,-0.58208 1.12183,-1.27793 0,-0.69586 -0.37571,-1.29117 -1.12977,-1.29117 -0.33867,0 -0.65088,0.11906 -0.78317,0.38894 h -0.0106 v -0.33338 h -0.41011 l 0.005,3.3999 z m 2.67758,-0.94456 h 0.40217 v -1.08744 c 0,-0.62177 0.23548,-0.99483 0.889,-0.99483 v -0.43127 c -0.43656,-0.0132 -0.70908,0.17992 -0.90223,0.57415 h -0.0106 v -0.51859 h -0.37836 v 2.45534 z m 1.32292,-1.22502 c 0,0.71702 0.41275,1.28058 1.19327,1.28058 0.78052,0 1.19063,-0.56356 1.19063,-1.28058 0,-0.71702 -0.41275,-1.28852 -1.19063,-1.28852 -0.77787,0 -1.19327,0.56621 -1.19327,1.28852 m 0.42862,0 c 0,-0.59796 0.34132,-0.93133 0.76465,-0.93133 0.42333,0 0.76465,0.33073 0.76465,0.93133 0,0.60061 -0.34132,0.92604 -0.76465,0.92604 -0.42333,0 -0.76465,-0.33073 -0.76465,-0.92604 m 2.30188,1.22502 h 0.40481 v -1.52929 c 0.0212,-0.34925 0.30956,-0.61912 0.65881,-0.62177 0.36248,0 0.46038,0.22754 0.46038,0.54504 v 1.60338 h 0.40217 v -1.5293 c -0.0185,-0.32543 0.23018,-0.60325 0.55562,-0.62177 0.0265,0 0.0556,0 0.0847,0 0.39423,0 0.47096,0.23548 0.47096,0.54505 v 1.60337 h 0.40216 v -1.79652 c 0,-0.508 -0.32808,-0.70908 -0.81756,-0.70908 -0.31221,0 -0.6006,0.1561 -0.76994,0.41804 -0.10054,-0.29898 -0.37571,-0.41804 -0.67468,-0.41804 -0.32015,-0.0106 -0.62178,0.14816 -0.79375,0.41804 h -0.0106 V 112.4876 H 128.143 v 2.45533 z m 4.32594,-2.45533 h -0.40482 v 2.45533 h 0.40482 z m -0.49477,-0.33602 h 0.30427 l 0.62177,-0.67998 h -0.50536 l -0.41804,0.67998 z m 0.8255,2.01877 c 0.0238,0.60589 0.48948,0.8255 1.03981,0.8255 0.50006,0 1.0451,-0.18786 1.0451,-0.77258 0,-0.47361 -0.39952,-0.60855 -0.80433,-0.6985 -0.37306,-0.09 -0.80169,-0.13759 -0.80169,-0.42863 0,-0.24606 0.28046,-0.31221 0.52123,-0.31221 0.26458,0 0.53975,0.0979 0.5715,0.41275 h 0.40217 c -0.0317,-0.59796 -0.46567,-0.76994 -1.00542,-0.76994 -0.42862,0 -0.91546,0.20373 -0.91546,0.6985 0,0.49478 0.40482,0.60325 0.80169,0.69321 0.39688,0.09 0.80433,0.14288 0.80433,0.45509 0,0.3122 -0.34131,0.36512 -0.59002,0.36512 -0.33337,0 -0.64558,-0.11906 -0.66146,-0.4736 h -0.40745 z"
       id="path2"
       style="fill:#ffffff;stroke-width:0.264583" />
    <path
       d="m 57.094436,131.93448 c -0.0053,0.55033 -0.251354,1.06891 -0.674687,1.41816 -0.463021,0.40746 -1.063625,0.62177 -1.677459,0.6059 -1.817687,0.005 -2.788708,-1.29117 -2.788708,-3.55865 0,-2.26748 0.971021,-3.56658 2.786062,-3.56658 0.709084,0 1.280584,0.24077 1.7145,0.70908 0.410105,0.4154 0.640292,0.97367 0.640292,1.5584 z m 1.418167,3.05064 v -12.63385 h -1.418167 v 4.34446 h -0.0344 c -0.640291,-0.75936 -1.489604,-1.13771 -2.545291,-1.13771 -1.145646,0 -2.090209,0.44714 -2.854855,1.32821 -0.743479,0.8837 -1.124479,2.04258 -1.124479,3.51366 0,1.47109 0.362479,2.64584 1.071563,3.52954 0.727604,0.88107 1.695979,1.31234 2.907771,1.31234 1.211791,0 2.196041,-0.5715 2.682875,-1.143 h 0.0344 v 0.88371 h 1.280584 z m 8.141229,-2.82046 c -0.07408,0.14817 -0.153459,0.29369 -0.243417,0.43127 -0.09525,0.1614 -0.203729,0.31221 -0.330729,0.4498 -0.140229,0.18785 -0.309563,0.35189 -0.500063,0.48418 -0.510645,0.27782 -1.082145,0.42598 -1.661583,0.43127 -0.899583,0 -1.592792,-0.30956 -2.076979,-0.91545 -0.484188,-0.6059 -0.709083,-1.34938 -0.727604,-2.23309 h 6.887104 v -0.41539 c 0,-1.50548 -0.381,-2.68288 -1.143,-3.54277 -0.762,-0.8599 -1.748896,-1.29911 -2.976563,-1.29911 -1.227666,0 -2.243666,0.44979 -3.029479,1.3335 -0.783166,0.88371 -1.158875,2.03994 -1.158875,3.51102 0,1.47109 0.396875,2.64584 1.193271,3.52954 0.796396,0.88107 1.817688,1.31234 3.063875,1.31234 1.867958,0 3.148542,-1.00277 3.84175,-2.33627 l -1.143,-0.74084 z m -5.503334,-2.47385 c 0.01852,-0.70644 0.26723,-1.38642 0.709084,-1.9394 0.470958,-0.60589 1.143,-0.9181 2.024062,-0.9181 0.881063,0 1.592792,0.27781 2.024063,0.84931 0.441854,0.57679 0.682625,1.28059 0.690562,2.00819 z m 9.464146,-7.33954 h -1.436687 v 12.63914 h 1.436687 z m 1.087438,9.51706 c 0.209021,1.98967 1.471083,3.37344 3.897312,3.37344 1.158875,0 2.042583,-0.25929 2.614083,-0.7964 0.590021,-0.5371 0.881063,-1.15887 0.881063,-1.88912 -0.01852,-0.74348 -0.235479,-1.31498 -0.693208,-1.7489 -0.431271,-0.43127 -1.246188,-0.8255 -2.439459,-1.15887 -1.124479,-0.32809 -1.833562,-0.5715 -2.145771,-0.762 -0.30427,-0.17198 -0.486833,-0.49742 -0.470958,-0.84932 0,-0.6932 0.674688,-1.28058 1.867958,-1.28058 1.193271,0 1.973792,0.59002 2.336271,1.7489 l 1.227667,-0.33073 c -0.396875,-1.5875 -1.55575,-2.62202 -3.563938,-2.62202 -0.986895,0 -1.76477,0.25929 -2.33627,0.762 -0.5715,0.5027 -0.846667,1.08743 -0.846667,1.76212 0,1.3335 0.812271,2.02406 3.07975,2.64848 1.090083,0.29369 1.799167,0.5715 2.12725,0.7964 0.346604,0.22489 0.521229,0.5715 0.518583,1.03716 0,0.88371 -0.727604,1.45257 -2.180166,1.45257 -1.452563,0 -2.370667,-0.7964 -2.545292,-2.40507 l -1.330854,0.25929 z m 12.062354,0.0159 c 0.552979,2.00818 2.087562,3.35491 4.325937,3.35491 1.230313,0 2.233083,-0.39687 3.029479,-1.18004 0.796396,-0.78317 1.193271,-1.83356 1.193271,-3.13002 0,-1.21179 -0.381,-2.18017 -1.124479,-2.92365 -0.719667,-0.73289 -1.709208,-1.1377 -2.735792,-1.11918 -1.299104,0 -2.283354,0.5027 -2.767541,1.143 l -0.01852,-0.0159 0.693208,-3.82587 h 4.881563 v -1.31498 h -5.969 l -1.090084,6.09071 1.280584,0.55297 c 0.62177,-0.96837 1.521354,-1.45256 2.69875,-1.45256 1.661583,0 2.751666,1.07156 2.751666,2.85486 0,1.78329 -1.090083,3.01095 -2.820458,3.01095 -1.505479,0 -2.489729,-0.84931 -2.958042,-2.52677 l -1.367895,0.48419 z m 15.142104,3.09827 v -5.93461 c 0,-1.2991 0.640291,-2.19869 1.97379,-2.19869 1.24619,0 1.86796,0.77788 1.86796,2.31775 v 5.81555 h 1.3679 v -5.93461 c 0,-1.38641 0.74347,-2.19869 2.00818,-2.19869 1.26471,0 1.87061,0.77788 1.87061,2.31775 v 5.81555 h 1.36525 v -6.24682 c 0,-1.95527 -1.22767,-3.18823 -3.16707,-3.18823 -1.18004,0 -2.14577,0.6059 -2.57968,1.34938 h -0.0344 c -0.43392,-0.75142 -1.26471,-1.34144 -2.42358,-1.34144 -0.97102,0 -1.905002,0.47096 -2.336273,1.143 h -0.0344 v -0.88371 h -1.280583 v 9.17311 h 1.402292 z m 13.5599,-9.17575 h -1.41817 v 9.17045 h 1.41817 z m 0.10318,-3.46075 h -1.62718 v 1.60866 h 1.62718 z m 3.06388,0 h -1.43404 v 12.63914 h 1.43668 V 122.346 Z m 3.14854,3.46075 h -1.41817 v 9.17045 h 1.41817 z m 0.10319,-3.46075 h -1.62719 v 1.60866 h 1.62719 z m 5.2705,11.60991 c -1.60867,0 -2.76754,-1.28058 -2.76754,-3.56393 0,-2.28336 1.15887,-3.56659 2.76754,-3.56659 1.60866,0 2.70139,1.3335 2.70139,3.56659 0,2.23308 -1.15887,3.56393 -2.70139,3.56393 m 0.005,1.28323 c 1.12183,0.0265 2.19869,-0.44185 2.94217,-1.28058 0.77258,-0.84667 1.14829,-2.03994 1.14829,-3.56394 0,-1.524 -0.39952,-2.68287 -1.19327,-3.54277 -0.72761,-0.84402 -1.79388,-1.32027 -2.90777,-1.2991 -1.12448,-0.0132 -2.20134,0.46037 -2.95275,1.2991 -0.81228,0.86519 -1.2118,2.04258 -1.2118,3.54277 0,1.50019 0.39688,2.71727 1.18005,3.56394 0.78316,0.84667 1.778,1.27794 2.98714,1.27794 m 6.73894,-0.25665 v -5.84994 c 0,-1.43668 0.93662,-2.28335 2.37067,-2.28335 1.43404,0 2.11137,0.84931 2.11137,2.56117 v 5.57212 h 1.40229 v -6.02456 c 0,-2.09286 -1.31498,-3.40784 -3.30729,-3.40784 -1.03717,0 -2.07698,0.47096 -2.57704,1.143 h -0.0423 v -0.8837 h -1.37848 v 9.1731 h 1.42345 z m 6.85006,-3.11415 c 0.20902,1.98967 1.47108,3.37344 3.89731,3.37344 1.15888,0 2.04259,-0.25929 2.61409,-0.79639 0.5715,-0.53711 0.88106,-1.15888 0.88106,-1.88913 -0.0185,-0.74348 -0.23548,-1.31498 -0.69321,-1.74889 -0.43127,-0.43128 -1.24619,-0.8255 -2.43946,-1.15888 -1.12448,-0.32808 -1.83356,-0.5715 -2.14577,-0.762 -0.30427,-0.17198 -0.48683,-0.49742 -0.4736,-0.84931 0,-0.69321 0.67468,-1.28059 1.8706,-1.28059 1.19592,0 1.97115,0.59003 2.33627,1.7489 l 1.23031,-0.33073 c -0.39687,-1.5875 -1.55575,-2.62202 -3.56393,-2.62202 -0.9869,0 -1.77271,0.25929 -2.33627,0.762 -0.56357,0.50271 -0.84932,1.09008 -0.84932,1.76477 0,1.3335 0.81227,2.02406 3.07975,2.64848 1.09009,0.29369 1.79917,0.5715 2.12725,0.7964 0.34661,0.22489 0.52123,0.5715 0.51859,1.03716 0,0.88371 -0.72761,1.45257 -2.18017,1.45257 -1.45256,0 -2.37067,-0.7964 -2.54529,-2.40507 l -1.33085,0.25665 z"
       id="path3"
       style="fill:#ffffff;stroke-width:0.264583" />
    <path
       d="m 58.009894,119.52023 v -1.30705 h -5.25727 v -10.80029 h -1.436688 v 12.12057 z m 7.699375,0 v -6.17009 c 0,-2.23308 -1.314979,-3.25437 -3.442229,-3.25437 -1.920875,0 -3.167062,1.1086 -3.46075,2.71727 l 1.280583,0.36248 c 0.259292,-1.21179 1.002771,-1.81504 2.233084,-1.81769 1.299104,0 1.920875,0.59002 1.920875,1.3679 -0.06879,0.55298 -0.259292,0.81491 -1.005417,1.1086 -0.531812,0.18785 -1.074208,0.3466 -1.627187,0.47096 -2.230438,0.56621 -3.077104,1.34408 -3.077104,2.86544 0,1.52135 1.071562,2.61408 3.09827,2.61408 1.452563,0 2.457979,-0.65881 2.801938,-1.26471 h 0.0344 v 1.01336 z m -3.770312,-4.13015 c 1.402291,-0.39687 2.198687,-0.762 2.354791,-1.09008 h 0.0344 v 2.28071 c 0,1.09008 -0.933979,1.93675 -2.598208,1.93675 -1.211792,0 -1.817688,-0.48419 -1.817688,-1.43669 0,-0.81227 0.449792,-1.26206 2.024063,-1.69598 m 15.509875,0.62706 c -0.07673,0.65352 -0.34925,1.26736 -0.777875,1.76477 -0.418042,0.4789 -1.026584,0.74348 -1.661584,0.72761 -1.730375,0 -2.786062,-1.34938 -2.786062,-3.56394 0,-2.21456 1.105958,-3.56394 2.767542,-3.56394 1.38377,0 2.14577,0.9869 2.423583,2.35479 l 1.3335,-0.27781 c -0.156104,-0.9869 -0.566208,-1.79917 -1.264708,-2.42623 -0.6985,-0.62442 -1.50548,-0.93398 -2.492375,-0.93398 -1.137709,-0.0265 -2.230438,0.45509 -2.976563,1.31498 -0.796396,0.86519 -1.193271,2.04258 -1.193271,3.52954 0,1.48696 0.381,2.7014 1.158875,3.56394 0.777875,0.86519 1.783292,1.28058 3.010959,1.28058 2.024062,0 3.529541,-1.36789 3.823229,-3.49514 z m 3.897312,-5.65944 h -1.418166 v 9.1784 h 1.418166 v -9.17575 z m 0.103188,-3.46075 h -1.627188 v 1.61132 h 1.627188 v -1.60867 z m 1.547812,9.4324 c 0,2.30187 1.211792,3.46075 3.235854,3.46075 0.473604,0.005 0.941917,-0.10054 1.367896,-0.31221 0.293688,-0.13758 0.566208,-0.31221 0.814917,-0.51858 0.0979,-0.0926 0.185208,-0.19844 0.259291,-0.30956 h 0.0344 v 0.889 h 1.386417 v -9.1784 h -1.402292 v 5.69383 c 0,1.52136 -0.762,2.42094 -2.145771,2.42094 -1.521354,0 -2.127249,-0.64029 -2.127249,-2.35215 v -5.76262 H 82.99979 v 5.97165 z m 9.183688,0.52917 c 0,1.78329 0.727604,2.66435 2.457979,2.66435 h 0.762 v -1.35996 h -0.685271 c -0.899583,0 -1.124479,-0.381 -1.124479,-1.47108 v -5.06942 h 2.243666 v -1.26471 h -2.264833 v -2.24102 h -1.349375 v 2.24367 h -1.314979 v 1.26471 h 1.280583 v 5.2361 z m 11.18658,2.66435 v -6.17008 c 0,-2.23309 -1.31498,-3.25438 -3.442226,-3.25438 -1.920875,0 -3.167063,1.10861 -3.46075,2.71727 l 1.280583,0.36248 c 0.264583,-1.20914 1.008062,-1.81504 2.235729,-1.81504 1.299104,0 1.920874,0.59002 1.920874,1.3679 -0.0688,0.55298 -0.25929,0.81491 -1.00277,1.1086 -0.53182,0.18785 -1.076854,0.3466 -1.627187,0.47096 -2.233083,0.5715 -3.07975,1.34937 -3.07975,2.87337 0,1.524 1.071562,2.61409 3.098271,2.61409 1.452556,0 2.457976,-0.65882 2.801936,-1.26471 h 0.0344 v 1.00542 l 1.24354,-0.0132 z m -3.77031,-4.13015 c 1.40229,-0.39687 2.19868,-0.762 2.35479,-1.09008 h 0.0344 v 2.28071 c 0,1.09008 -0.93398,1.93675 -2.598201,1.93675 -1.211791,0 -1.817687,-0.48419 -1.817687,-1.43669 0,-0.81227 0.449792,-1.26206 2.024062,-1.69598 m 5.632976,1.47638 c 0,1.78329 0.7276,2.66435 2.45798,2.66435 h 0.762 v -1.36789 h -0.69056 c -0.89959,0 -1.12448,-0.381 -1.12448,-1.47109 v -5.06941 h 2.24896 v -1.26471 h -2.26748 v -2.23838 h -1.34938 v 2.24367 h -1.31498 v 1.26471 h 1.28059 v 5.24404 z"
       id="path4"
       style="fill:#ffffff;stroke-width:0.264583" />
  </g>
</svg>
