<?xml version="1.0" encoding="UTF-8" standalone="no"?>
<!-- Created with Inkscape (http://www.inkscape.org/) -->

<svg
   width="117.43797mm"
   height="28.466524mm"
   viewBox="0 0 117.43797 28.466524"
   version="1.1"
   id="svg1"
   xmlns="http://www.w3.org/2000/svg"
   xmlns:svg="http://www.w3.org/2000/svg">
  <defs
     id="defs1" />
  <g
     id="layer1"
     transform="translate(-46.566661,-134.40833)">
    <path
       d="m 60.981161,158.34783 v 4.52702 h 2.754312 v -4.50586 c 0,-1.70921 1.30175,-3.09562 2.968625,-3.09562 1.666875,0 2.968625,1.36789 2.968625,3.09562 v 4.50586 h 2.733146 v -4.50586 c 0,-1.70921 1.30175,-3.09562 2.968625,-3.09562 1.666875,0 2.968625,1.36789 2.968625,3.09562 v 4.50586 h 2.754312 v -4.50586 c 0,-3.28877 -2.561166,-5.93725 -5.722937,-5.93725 -1.688042,0 -3.288771,0.76994 -4.336521,2.09286 -1.068916,-1.28059 -2.669646,-2.07169 -4.333875,-2.09286 -3.182937,-0.0635 -5.744104,2.62732 -5.722937,5.91609 m -7.260167,2.43416 v 2.09286 h 2.733146 v -2.09286 c 0,-5.18848 2.243667,-9.95098 5.659437,-12.19464 2.518834,-1.64307 5.402792,-1.73038 8.307917,-0.21432 l 0.619125,0.32015 0.619125,-0.32015 c 3.46075,-1.8362 6.278562,-0.87577 8.072437,0.23548 3.503084,2.24367 5.87375,7.112 5.87375,12.17348 v 2.09286 h 2.733146 v -2.09286 c 0,-6.08541 -2.838979,-11.82952 -7.196666,-14.62881 -3.159125,-2.00819 -6.725709,-2.24367 -10.144125,-0.66146 -3.566584,-1.62189 -7.217834,-1.36789 -10.358438,0.64029 -4.228041,2.77548 -6.918854,8.49842 -6.918854,14.64998 m 17.277292,-26.37366 c -13.454063,0 -24.431625,11.40354 -24.431625,25.45556 v 3.01096 h 2.754312 v -3.01096 c 0,-12.45129 9.739313,-22.57425 21.698479,-22.57425 11.959167,0 21.695833,10.12296 21.695833,22.5716 v 3.01096 h 2.754313 v -3.01096 c 0,-14.02821 -10.974917,-25.45291 -24.471312,-25.45291"
       id="path5"
       style="fill:#ffffff;stroke-width:0.264583" />
    <path
       d="m 103.54204,158.96695 c 0,-0.36248 -0.127,-0.70379 -0.38365,-0.9816 -0.25665,-0.27782 -0.61913,-0.42598 -1.04775,-0.42598 -1.06627,0 -1.66688,0.76994 -1.66688,2.13519 0,1.36525 0.5768,2.15635 1.66688,2.15635 0.42598,0 0.76994,-0.12965 1.04775,-0.38365 0.27781,-0.25664 0.40481,-0.57679 0.40481,-0.9181 l -0.0212,-1.57956 z m 0.0847,3.71475 v -0.57679 h -0.0212 c -0.42598,0.49212 -1.00278,0.74612 -1.68805,0.74612 -0.7911,0 -1.41023,-0.27781 -1.87854,-0.8546 -0.44979,-0.57679 -0.682623,-1.32292 -0.682623,-2.286 0,-0.96308 0.256646,-1.70921 0.746123,-2.26483 0.51329,-0.57679 1.11125,-0.85461 1.81504,-0.85461 0.6403,0 1.17475,0.25665 1.60073,0.74613 h 0.0212 v -2.4765 h 1.09008 v 7.83696 l -1.00277,-0.0212 z"
       id="path6"
       style="fill:#ffffff;stroke-width:0.264583" />
    <path
       d="m 109.67243,159.17862 c -0.0423,-0.89694 -0.55562,-1.64571 -1.60073,-1.64571 -0.51329,0 -0.87577,0.17198 -1.17475,0.51329 -0.27781,0.34131 -0.42598,0.70379 -0.42598,1.11125 l 3.20411,0.0212 z m 0.91811,2.21985 c -0.4498,0.83344 -1.28059,1.45256 -2.45534,1.45256 -0.81227,0 -1.49489,-0.27781 -2.00819,-0.8546 -0.51329,-0.57679 -0.76993,-1.32292 -0.76993,-2.286 0,-0.96308 0.25664,-1.70921 0.76993,-2.26483 0.5133,-0.57679 1.17475,-0.85461 1.96586,-0.85461 0.7911,0 1.43139,0.27782 1.94204,0.85461 0.51329,0.55562 0.74613,1.32291 0.74613,2.286 v 0.32014 h -4.31271 c 0.0423,1.06892 0.59796,1.83621 1.64571,1.83621 0.49212,0 0.87577,-0.127 1.13241,-0.40481 0.27781,-0.27781 0.34131,-0.38365 0.53446,-0.68263 l 0.81227,0.59796 z"
       id="path7"
       style="fill:#ffffff;stroke-width:0.264583" />
    <path
       d="m 115.5012,161.65776 h 1.57956 c 1.23825,0 1.87855,-0.29898 1.87855,-1.32291 0,-0.96044 -0.59796,-1.25942 -1.85738,-1.25942 h -1.60073 v 2.58498 z m 0,-3.54541 h 1.81504 c 0.89694,0 1.34409,-0.36248 1.34409,-1.11125 0,-0.74877 -0.51329,-1.11125 -1.3679,-1.11125 h -1.79387 v 2.21985 z m -1.11125,4.56935 v -7.83696 h 3.11679 c 0.68263,0 1.25942,0.19315 1.66688,0.59796 0.40481,0.38365 0.61912,0.87577 0.61912,1.47373 0,0.70379 -0.32014,1.21708 -0.96043,1.53723 v 0.0212 c 0.68262,0.25664 1.25941,0.89693 1.25941,1.85737 0,1.5584 -0.93927,2.3495 -2.81781,2.3495 z"
       id="path8"
       style="fill:#ffffff;stroke-width:0.264583" />
    <path
       d="m 121.7586,161.05981 c 0,0.55562 0.36248,0.81227 1.06891,0.81227 1.00278,0 1.5584,-0.49213 1.5584,-1.11125 v -1.32557 h -0.0212 c -0.0635,0.17198 -0.25664,0.32015 -1.43139,0.6403 -0.91811,0.25664 -1.17475,0.53445 -1.17475,0.9816 m 2.73314,1.6219 v -0.61913 h -0.0212 c -0.0847,0.17198 -0.27782,0.34131 -0.57679,0.53446 -0.29898,0.17198 -0.68263,0.27781 -1.17475,0.27781 -1.34409,0 -2.02936,-0.72496 -2.02936,-1.70921 0,-0.98425 0.55563,-1.49489 1.98702,-1.83621 0.64029,-0.17197 1.06892,-0.29897 1.30175,-0.42597 0.23548,-0.127 0.34131,-0.29898 0.34131,-0.53446 0,-0.44979 -0.38364,-0.81227 -1.17475,-0.81227 -0.74877,0 -1.19591,0.36248 -1.36789,1.11125 l -0.96044,-0.34132 c 0.21431,-1.02393 1.02394,-1.73037 2.30717,-1.73037 1.38906,0 2.30716,0.68262 2.30716,2.17752 v 3.9079 z"
       id="path9"
       style="fill:#ffffff;stroke-width:0.264583" />
    <path
       d="m 126.69043,162.6817 v -5.93725 h 1.04775 v 0.64029 h 0.0212 c 0.23548,-0.44979 0.72496,-0.74612 1.21708,-0.74612 0.19315,0 0.38365,0.0423 0.53446,0.10583 l -0.19315,1.06892 c -0.14816,-0.0635 -0.29898,-0.0847 -0.44714,-0.0847 -0.72761,0 -1.06892,0.49213 -1.06892,1.45256 v 3.48192 l -1.11125,0.0212 z"
       id="path10"
       style="fill:#ffffff;stroke-width:0.264583" />
    <path
       d="m 134.82637,160.63118 c -0.21431,1.3679 -1.13242,2.21985 -2.51884,2.21985 -0.7911,0 -1.45256,-0.27781 -1.96585,-0.83343 -0.51329,-0.55563 -0.74612,-1.32292 -0.74612,-2.286 0,-0.96309 0.25664,-1.75154 0.7911,-2.28336 0.53446,-0.55562 1.17475,-0.83343 1.94469,-0.83343 0.68262,0 1.23825,0.19314 1.68804,0.61912 0.44714,0.40481 0.72496,0.93927 0.7911,1.57956 l -1.06891,0.17198 c -0.127,-0.7911 -0.5768,-1.36789 -1.4314,-1.36789 -1.00277,0 -1.64571,0.7911 -1.64571,2.13518 0,1.34409 0.61913,2.15636 1.66688,2.15636 0.83343,0 1.28058,-0.64029 1.43139,-1.4949 l 1.06892,0.21431 z"
       id="path11"
       style="fill:#ffffff;stroke-width:0.264583" />
    <path
       d="m 139.65501,159.17862 c -0.0423,-0.89694 -0.55562,-1.64571 -1.60073,-1.64571 -0.51329,0 -0.87577,0.17198 -1.17475,0.51329 -0.27781,0.34131 -0.42597,0.70379 -0.42597,1.11125 l 3.2041,0.0212 z m 0.91811,2.21985 c -0.44979,0.83344 -1.28059,1.45256 -2.45534,1.45256 -0.81227,0 -1.49489,-0.27781 -2.00818,-0.8546 -0.51329,-0.57679 -0.76994,-1.32292 -0.76994,-2.286 0,-0.96308 0.25665,-1.70921 0.76994,-2.26483 0.51329,-0.57679 1.17475,-0.85461 1.96585,-0.85461 0.79111,0 1.4314,0.27782 1.94204,0.85461 0.51329,0.55562 0.74613,1.32291 0.74613,2.286 v 0.32014 h -4.29154 c 0.0423,1.06892 0.59795,1.83621 1.6457,1.83621 0.49213,0 0.87578,-0.127 1.13242,-0.40481 0.27781,-0.27781 0.34131,-0.38365 0.53446,-0.68263 l 0.7911,0.59796 z"
       id="path12"
       style="fill:#ffffff;stroke-width:0.264583" />
    <rect
       x="141.49123"
       y="154.84474"
       width="1.1112499"
       height="7.8369584"
       id="rect12"
       style="fill:#ffffff;stroke-width:0.264583" />
    <path
       d="m 147.66131,159.71308 c 0,-1.34409 -0.66146,-2.13519 -1.60073,-2.13519 -0.93927,0 -1.64307,0.76994 -1.64307,2.13519 0,1.36525 0.66146,2.15635 1.64307,2.15635 0.9816,0 1.60073,-0.81227 1.60073,-2.15635 m -3.54542,2.30716 c -0.51329,-0.55562 -0.76994,-1.32291 -0.76994,-2.30716 0,-0.98425 0.25665,-1.73038 0.79111,-2.286 0.53445,-0.55563 1.17475,-0.83344 1.94204,-0.83344 0.76729,0 1.38906,0.27781 1.89971,0.83344 0.53445,0.55562 0.7911,1.32291 0.7911,2.286 0,0.96308 -0.25665,1.75154 -0.76994,2.30716 -0.51329,0.55563 -1.13241,0.83344 -1.92352,0.83344 -0.7911,0 -1.45256,-0.27781 -1.96321,-0.83344"
       id="path13"
       style="fill:#ffffff;stroke-width:0.264583" />
    <path
       d="m 149.47635,162.6817 v -5.93725 h 1.06891 v 0.57679 h 0.0212 c 0.32015,-0.40481 0.96044,-0.74612 1.6219,-0.74612 1.30175,0 2.13518,0.83344 2.13518,2.21985 v 3.88673 h -1.09008 v -3.56658 c 0,-1.02394 -0.40481,-1.51606 -1.25942,-1.51606 -0.8546,0 -1.41023,0.51329 -1.41023,1.36789 v 3.73592 l -1.09008,-0.0212 z"
       id="path14"
       style="fill:#ffffff;stroke-width:0.264583" />
    <path
       d="m 156.28937,161.05981 c 0,0.55562 0.36248,0.81227 1.06891,0.81227 1.00278,0 1.5584,-0.49213 1.5584,-1.11125 v -1.32557 h -0.0212 c -0.0635,0.17198 -0.25664,0.32015 -1.43139,0.6403 -0.93927,0.25664 -1.17475,0.53445 -1.17475,0.9816 m 2.73314,1.6219 v -0.61913 h -0.0212 c -0.0847,0.17198 -0.27782,0.34131 -0.57679,0.53446 -0.29898,0.17198 -0.68263,0.27781 -1.17475,0.27781 -1.34409,0 -2.02936,-0.72496 -2.02936,-1.70921 0,-0.98425 0.55563,-1.49489 1.98702,-1.83621 0.64029,-0.17197 1.06892,-0.29897 1.30175,-0.42597 0.23548,-0.127 0.34131,-0.29898 0.34131,-0.53446 0,-0.44979 -0.38364,-0.81227 -1.17475,-0.81227 -0.74877,0 -1.19591,0.36248 -1.36789,1.11125 l -0.96044,-0.34132 c 0.21431,-1.02393 1.02394,-1.73037 2.30717,-1.73037 1.38906,0 2.30716,0.68262 2.30716,2.17752 v 3.9079 z"
       id="path15"
       style="fill:#ffffff;stroke-width:0.264583" />
    <path
       d="m 100.98087,138.25008 h 1.92087 c 0.87577,0 1.51607,-0.5133 1.51607,-1.41023 0,-0.96044 -0.6403,-1.41023 -1.53723,-1.41023 h -1.89971 v 2.81781 z m -1.111251,3.99256 v -7.83431 h 3.074461 c 0.7911,0 1.43139,0.21431 1.92352,0.64029 0.49212,0.42598 0.72496,1.02394 0.72496,1.79387 0,1.51607 -1.02394,2.43417 -2.62732,2.43417 h -1.98702 v 2.96862 h -1.111247 z"
       id="path16"
       style="fill:#ffffff;stroke-width:0.264583" />
    <rect
       x="106.19051"
       y="134.40833"
       width="1.1112499"
       height="7.8369584"
       id="rect16"
       style="fill:#ffffff;stroke-width:0.264583" />
    <path
       d="m 109.30731,140.62074 c 0,0.55563 0.36248,0.81227 1.06891,0.81227 1.00277,0 1.5584,-0.49212 1.5584,-1.11125 v -1.32556 h -0.0212 c -0.0635,0.17198 -0.25664,0.32015 -1.43139,0.64029 -0.93927,0.25665 -1.17475,0.53446 -1.17475,0.98161 m 2.73314,1.62189 v -0.61912 h -0.0212 c -0.0847,0.17198 -0.27782,0.34131 -0.5768,0.53446 -0.29898,0.17198 -0.68262,0.27781 -1.17475,0.27781 -1.34408,0 -2.02935,-0.72496 -2.02935,-1.70921 0,-0.98425 0.55562,-1.4949 1.98702,-1.83621 0.64029,-0.17198 1.06892,-0.29898 1.30175,-0.42598 0.23548,-0.12964 0.34131,-0.29898 0.34131,-0.53446 0,-0.44979 -0.38364,-0.81227 -1.17475,-0.81227 -0.74877,0 -1.19591,0.36248 -1.36789,1.11125 l -0.96044,-0.34131 c 0.21431,-1.02394 1.02394,-1.73037 2.30717,-1.73037 1.38906,0 2.30716,0.68262 2.30716,2.17752 v 3.90789 z"
       id="path17"
       style="fill:#ffffff;stroke-width:0.264583" />
    <polygon
       points="265.79,29.82 265.79,0.2 283.87,0.2 283.87,4.15 270.06,4.15 270.06,12.71 282.74,12.71 282.74,16.5 270.06,16.5 270.06,25.94 283.95,25.94 283.95,29.82 "
       id="polygon17"
       style="fill:#ffffff"
       transform="matrix(0.26458333,0,0,0.26458333,46.566661,134.35541)" />
    <path
       d="m 123.42283,140.02278 c 0.10583,0.98161 0.61912,1.45257 1.53723,1.45257 0.8546,0 1.34408,-0.34132 1.34408,-0.85461 0,-0.25664 -0.10583,-0.44979 -0.32015,-0.57679 -0.21431,-0.127 -0.66145,-0.29898 -1.34408,-0.49212 -1.4314,-0.38365 -1.98702,-0.83344 -1.98702,-1.73038 0,-0.44979 0.19315,-0.8546 0.55562,-1.19592 0.38365,-0.34131 0.89694,-0.51329 1.5584,-0.51329 1.32556,0 2.09285,0.68263 2.37067,1.73038 l -0.93927,0.25664 c -0.23548,-0.70379 -0.7038,-1.06891 -1.4314,-1.06891 -0.7276,0 -1.11125,0.34131 -1.11125,0.74612 0,0.21431 0.10583,0.38365 0.29898,0.51329 0.19315,0.10584 0.66146,0.27782 1.41023,0.49213 0.74877,0.21431 1.23825,0.44979 1.51606,0.74612 0.27781,0.27782 0.42598,0.6403 0.42598,1.11125 0.0212,0.47096 -0.17198,0.87577 -0.57679,1.23825 -0.38365,0.34132 -0.96044,0.53446 -1.73038,0.53446 -0.76993,0 -1.41023,-0.19314 -1.8362,-0.61912 -0.42598,-0.40482 -0.66146,-0.93927 -0.74878,-1.53723 l 1.00278,-0.23548 z"
       id="path18"
       style="fill:#ffffff;stroke-width:0.264583" />
    <path
       d="m 128.44197,137.26847 h -0.87577 v -0.96044 h 0.89694 v -1.45256 h 1.04775 v 1.45256 h 1.47373 v 0.96044 h -1.47373 v 3.01096 c 0,0.66146 0.14817,0.9181 0.76994,0.9181 h 0.44979 v 1.04775 h -0.53446 c -1.28058,0 -1.75154,-0.59795 -1.75154,-1.85737 v -3.11679 z"
       id="path19"
       style="fill:#ffffff;stroke-width:0.264583" />
    <path
       d="m 131.88156,142.24528 v -5.93725 h 1.04775 v 0.6403 h 0.0212 c 0.23548,-0.4498 0.72496,-0.74613 1.21709,-0.74613 0.19314,0 0.38364,0.0423 0.53445,0.10583 l -0.19314,1.06892 c -0.14817,-0.0635 -0.29898,-0.0847 -0.44715,-0.0847 -0.7276,0 -1.06891,0.49213 -1.06891,1.45257 v 3.48191 l -1.11125,0.0212 z"
       id="path20"
       style="fill:#ffffff;stroke-width:0.264583" />
    <path
       d="m 136.08843,140.62074 c 0,0.55563 0.36248,0.81227 1.06892,0.81227 1.00277,0 1.55839,-0.49212 1.55839,-1.11125 v -1.32556 h -0.0212 c -0.0635,0.17198 -0.25665,0.32015 -1.4314,0.64029 -0.93927,0.25665 -1.17475,0.53446 -1.17475,0.98161 m 2.73315,1.62189 v -0.61912 h -0.0212 c -0.0847,0.17198 -0.27781,0.34131 -0.57679,0.53446 -0.29898,0.17198 -0.68263,0.27781 -1.17475,0.27781 -1.34409,0 -2.02936,-0.72496 -2.02936,-1.70921 0,-0.98425 0.55563,-1.4949 1.98702,-1.83621 0.6403,-0.17198 1.06892,-0.29898 1.30175,-0.42598 0.23548,-0.12964 0.34132,-0.29898 0.34132,-0.53446 0,-0.44979 -0.38365,-0.81227 -1.17475,-0.81227 -0.74877,0 -1.19592,0.36248 -1.3679,1.11125 l -0.96044,-0.34131 c 0.21432,-1.02394 1.02394,-1.73037 2.30717,-1.73037 1.38906,0 2.30717,0.68262 2.30717,2.17752 v 3.90789 z"
       id="path21"
       style="fill:#ffffff;stroke-width:0.264583" />
    <path
       d="m 141.25574,137.26847 h -0.87577 v -0.96044 h 0.89694 v -1.45256 h 1.04775 v 1.45256 h 1.47373 v 0.96044 h -1.47373 v 3.01096 c 0,0.66146 0.14817,0.9181 0.76994,0.9181 h 0.44979 v 1.04775 h -0.53446 c -1.28058,0 -1.75154,-0.59795 -1.75154,-1.85737 v -3.11679 z"
       id="path22"
       style="fill:#ffffff;stroke-width:0.264583" />
    <path
       d="m 148.38891,138.7422 c -0.0423,-0.89694 -0.55563,-1.64571 -1.60073,-1.64571 -0.51329,0 -0.87577,0.17198 -1.17475,0.51329 -0.27781,0.34132 -0.42598,0.7038 -0.42598,1.11125 l 3.20411,0.0212 z m 0.9181,2.21986 c -0.44979,0.83343 -1.28058,1.45256 -2.45533,1.45256 -0.81227,0 -1.4949,-0.27781 -2.00819,-0.85461 -0.51329,-0.57679 -0.76993,-1.32291 -0.76993,-2.286 0,-0.96308 0.25664,-1.7092 0.76993,-2.26483 0.51329,-0.57679 1.17475,-0.8546 1.96586,-0.8546 0.7911,0 1.43139,0.27781 1.94204,0.8546 0.51329,0.55563 0.74612,1.32292 0.74612,2.286 v 0.32015 h -4.27037 c 0.0423,1.06891 0.59796,1.8362 1.64571,1.8362 0.49212,0 0.87577,-0.127 1.13241,-0.40481 0.27782,-0.27781 0.34132,-0.38364 0.53446,-0.68262 l 0.76994,0.59796 z"
       id="path23"
       style="fill:#ffffff;stroke-width:0.264583" />
    <path
       d="m 154.26001,138.50672 c 0,-0.36248 -0.127,-0.66146 -0.40481,-0.96044 -0.25664,-0.27781 -0.59796,-0.40481 -1.0451,-0.40481 -1.06892,0 -1.70921,0.79111 -1.70921,2.13519 0,1.34408 0.64029,2.15635 1.70921,2.15635 0.40481,0 0.76993,-0.12964 1.02393,-0.36248 0.27782,-0.25664 0.40482,-0.55562 0.40482,-0.89693 l 0.0212,-1.66423 z m -2.92629,4.35504 c 0.32015,0.7038 0.72496,1.11125 1.51606,1.11125 0.87578,0 1.4314,-0.53445 1.4314,-1.47373 v -0.76993 h -0.0212 c -0.34131,0.44979 -0.87577,0.68262 -1.57956,0.68262 -0.76994,0 -1.41023,-0.27781 -1.89971,-0.83344 -0.49212,-0.57679 -0.72496,-1.32291 -0.72496,-2.286 0,-0.96308 0.25665,-1.7092 0.74613,-2.26483 0.51329,-0.57679 1.13242,-0.8546 1.87854,-0.8546 0.68263,0 1.23825,0.25664 1.64571,0.74612 h 0.0212 v -0.57679 h 1.04775 v 5.97958 c 0,1.70921 -0.96044,2.62732 -2.49767,2.62732 -1.21708,0 -2.05052,-0.61913 -2.39183,-1.5584 l 0.83343,-0.53446 z"
       id="path24"
       style="fill:#ffffff;stroke-width:0.264583" />
    <rect
       x="156.69418"
       y="136.30803"
       width="1.0900832"
       height="5.9372501"
       id="rect24"
       style="fill:#ffffff;stroke-width:0.264583" />
    <path
       d="m 163.99933,140.19476 c -0.21432,1.3679 -1.13242,2.21986 -2.51884,2.21986 -0.7911,0 -1.45256,-0.27781 -1.96585,-0.83344 -0.51329,-0.55562 -0.74613,-1.32292 -0.74613,-2.286 0,-0.96308 0.25665,-1.75154 0.79111,-2.28335 0.53446,-0.55563 1.17475,-0.83344 1.94469,-0.83344 0.68262,0 1.23825,0.19314 1.68804,0.61912 0.44714,0.40482 0.72496,0.93927 0.7911,1.57957 l -1.06892,0.17198 c -0.127,-0.79111 -0.57679,-1.3679 -1.43139,-1.3679 -1.00277,0 -1.64571,0.7911 -1.64571,2.13519 0,1.34408 0.61913,2.15635 1.66688,2.15635 0.83343,0 1.28058,-0.64029 1.43139,-1.49489 l 1.06892,0.21431 z"
       id="path25"
       style="fill:#ffffff;stroke-width:0.264583" />
    <polygon
       points="377.57,5.36 373.05,0.2 377.73,0.2 381.13,5.36 "
       id="polygon25"
       style="fill:#ffffff"
       transform="matrix(0.26458333,0,0,0.26458333,46.566661,134.35541)" />
    <rect
       x="156.65186"
       y="134.40833"
       width="1.17475"
       height="1.1535834"
       id="rect25"
       style="fill:#ffffff;stroke-width:0.264583" />
    <polygon
       points="215.34,69.29 205.74,46.77 205.66,46.77 205.66,69.29 201.46,69.29 201.46,39.67 206.87,39.67 215.91,61.21 215.99,61.21 225.03,39.67 230.35,39.67 230.35,69.29 226.16,69.29 226.16,46.77 226.08,46.77 216.47,69.29 "
       id="polygon26"
       style="fill:#ffffff"
       transform="matrix(0.26458333,0,0,0.26458333,46.566661,134.35541)" />
    <path
       d="m 112.65958,149.20647 c -0.0423,-0.89694 -0.55563,-1.64571 -1.60073,-1.64571 -0.51329,0 -0.87577,0.17198 -1.17475,0.5133 -0.27781,0.34131 -0.42598,0.70379 -0.42598,1.11125 l 3.2041,0.0212 z m 0.9181,2.21986 c -0.44979,0.83343 -1.28058,1.45256 -2.45533,1.45256 -0.81227,0 -1.4949,-0.27781 -2.00819,-0.85461 -0.51329,-0.57679 -0.76994,-1.32291 -0.76994,-2.286 0,-0.96308 0.25665,-1.7092 0.76994,-2.26483 0.51329,-0.57679 1.17475,-0.8546 1.96585,-0.8546 0.79111,0 1.4314,0.27781 1.94205,0.8546 0.51329,0.55563 0.74612,1.32292 0.74612,2.286 v 0.32015 h -4.33387 c 0.0423,1.06891 0.59795,1.83621 1.6457,1.83621 0.49213,0 0.87578,-0.127 1.13242,-0.40482 0.27781,-0.27781 0.34131,-0.38364 0.53446,-0.68262 l 0.83344,0.59796 z"
       id="path26"
       style="fill:#ffffff;stroke-width:0.264583" />
    <path
       d="m 114.94558,147.71158 h -0.87577 v -0.96044 h 0.89693 v -1.45256 h 1.04775 v 1.45256 h 1.47373 v 0.96044 h -1.47373 v 3.01095 c 0,0.66146 0.14817,0.91811 0.76994,0.91811 h 0.44979 v 1.04775 h -0.53446 c -1.28058,0 -1.75154,-0.59796 -1.75154,-1.85738 v -3.11679 z"
       id="path27"
       style="fill:#ffffff;stroke-width:0.264583" />
    <path
       d="m 118.38516,152.68839 v -5.93725 h 1.04775 v 0.64029 h 0.0212 c 0.23548,-0.44979 0.72496,-0.74612 1.21708,-0.74612 0.19315,0 0.38365,0.0423 0.53446,0.10583 l -0.19315,1.06892 c -0.15081,-0.0635 -0.29898,-0.0847 -0.44979,-0.0847 -0.7276,0 -1.06892,0.49212 -1.06892,1.45256 v 3.48192 l -1.11125,0.0212 z"
       id="path28"
       style="fill:#ffffff;stroke-width:0.264583" />
    <path
       d="m 125.64533,149.71976 c 0,-1.34408 -0.66146,-2.13518 -1.60073,-2.13518 -0.93927,0 -1.64306,0.76993 -1.64306,2.13518 0,1.36525 0.66145,2.15636 1.64306,2.15636 0.9816,0 1.60073,-0.79111 1.60073,-2.15636 m -3.58775,2.30717 c -0.51329,-0.55562 -0.76994,-1.32292 -0.76994,-2.30717 0,-0.98425 0.25665,-1.73037 0.7911,-2.286 0.53446,-0.55562 1.17475,-0.83343 1.94205,-0.83343 0.76729,0 1.38906,0.27781 1.8997,0.83343 0.53446,0.55563 0.79111,1.32292 0.79111,2.286 0,0.96309 -0.25665,1.75155 -0.76994,2.30717 -0.51329,0.55563 -1.13242,0.83344 -1.92352,0.83344 -0.7911,0 -1.4314,-0.27781 -1.96321,-0.83344"
       id="path29"
       style="fill:#ffffff;stroke-width:0.264583" />
    <path
       d="m 128.52664,150.6167 c 0,0.34131 0.127,0.64029 0.40481,0.89694 0.27781,0.25664 0.61913,0.36248 1.04511,0.36248 1.06891,0 1.7092,-0.79111 1.7092,-2.15636 0,-1.36525 -0.64029,-2.13518 -1.7092,-2.13518 -0.42598,0 -0.79111,0.127 -1.04511,0.40481 -0.25664,0.27781 -0.38364,0.59796 -0.38364,0.96044 z m -1.06892,3.9714 v -7.83696 h 1.04775 v 0.57679 h 0.0212 c 0.0847,-0.10583 0.17198,-0.19315 0.29898,-0.29898 0.23548,-0.19314 0.7911,-0.44979 1.36789,-0.44979 0.72496,0 1.32292,0.29898 1.83621,0.8546 0.51329,0.5768 0.76994,1.32292 0.76994,2.26484 0,0.94191 -0.25665,1.73037 -0.72496,2.286 -0.49212,0.55562 -1.11125,0.83343 -1.85737,0.83343 -0.81227,0 -1.41023,-0.40481 -1.64571,-0.74612 h -0.0212 v 2.4765 h -1.09008 v 0.0423 z"
       id="path30"
       style="fill:#ffffff;stroke-width:0.264583" />
    <path
       d="m 137.64683,149.71976 c 0,-1.34408 -0.66146,-2.13518 -1.60073,-2.13518 -0.93927,0 -1.64307,0.76993 -1.64307,2.13518 0,1.36525 0.66146,2.15636 1.64307,2.15636 0.9816,0 1.60073,-0.79111 1.60073,-2.15636 m -3.56659,2.30717 c -0.51329,-0.55562 -0.76993,-1.32292 -0.76993,-2.30717 0,-0.98425 0.25664,-1.73037 0.7911,-2.286 0.53446,-0.55562 1.17475,-0.83343 1.94204,-0.83343 0.76729,0 1.38906,0.27781 1.89971,0.83343 0.53446,0.55563 0.7911,1.32292 0.7911,2.286 0,0.96309 -0.25664,1.75155 -0.76993,2.30717 -0.5133,0.55563 -1.13242,0.83344 -1.92352,0.83344 -0.79111,0 -1.45257,-0.27781 -1.96321,-0.83344"
       id="path31"
       style="fill:#ffffff;stroke-width:0.264583" />
    <rect
       x="139.46187"
       y="144.85143"
       width="1.1112499"
       height="7.8369584"
       id="rect31"
       style="fill:#ffffff;stroke-width:0.264583" />
    <path
       d="m 144.71385,147.71158 h -0.87577 v -0.96044 h 0.89693 v -1.45256 h 1.04775 v 1.45256 h 1.47373 v 0.96044 h -1.47373 v 3.01095 c 0,0.66146 0.14817,0.91811 0.76994,0.91811 h 0.44979 v 1.04775 h -0.53446 c -1.28058,0 -1.75154,-0.59796 -1.75154,-1.85738 v -3.11679 z"
       id="path32"
       style="fill:#ffffff;stroke-width:0.264583" />
    <rect
       x="141.76904"
       y="146.75114"
       width="1.0900832"
       height="5.9372501"
       id="rect32"
       style="fill:#ffffff;stroke-width:0.264583" />
    <rect
       x="141.72406"
       y="144.85143"
       width="1.17475"
       height="1.1535834"
       id="rect33"
       style="fill:#ffffff;stroke-width:0.264583" />
    <path
       d="m 148.68789,151.08501 c 0,0.55563 0.36248,0.81227 1.06892,0.81227 1.00277,0 1.55839,-0.49212 1.55839,-1.11125 v -1.32556 h -0.0212 c -0.0635,0.17198 -0.25664,0.32015 -1.43139,0.64029 -0.93927,0.25665 -1.17475,0.5133 -1.17475,0.98161 m 2.73314,1.60073 v -0.61913 h -0.0212 c -0.0847,0.17198 -0.27781,0.34131 -0.57679,0.53446 -0.29898,0.17198 -0.68263,0.27781 -1.17475,0.27781 -1.34409,0 -2.02936,-0.72496 -2.02936,-1.70921 0,-0.98425 0.55563,-1.49489 1.98702,-1.8362 0.64029,-0.17198 1.06892,-0.29898 1.30175,-0.42598 0.23548,-0.12965 0.34132,-0.29898 0.34132,-0.53446 0,-0.44979 -0.38365,-0.81227 -1.17475,-0.81227 -0.74878,0 -1.19592,0.36248 -1.3679,1.11125 l -0.96044,-0.34131 c 0.21431,-1.02394 1.02394,-1.73038 2.30717,-1.73038 1.38906,0 2.30717,0.68263 2.30717,2.17752 v 3.9079 z"
       id="path33"
       style="fill:#ffffff;stroke-width:0.264583" />
    <polygon
       points="391.13,44.83 386.45,39.67 391.29,39.67 394.68,44.83 "
       id="polygon33"
       style="fill:#ffffff"
       transform="matrix(0.26458333,0,0,0.26458333,46.566661,134.35541)" />
  </g>
</svg>
