<?xml version="1.0" encoding="UTF-8"?>
<!-- Generator: Adobe Illustrator 21.0.0, SVG Export Plug-In . SVG Version: 6.00 Build 0)  -->
<svg version="1.1" id="Capa_1" xmlns="http://www.w3.org/2000/svg" xmlns:xlink="http://www.w3.org/1999/xlink" x="0px" y="0px" viewBox="0 0 1000 1000" style="enable-background:new 0 0 1000 1000;/*! background: black; */" xml:space="preserve">
<style type="text/css">
	.st0{fill:#FFFFFF;}
</style>
<g>
	<path class="st0" d="M873.1,689.6c0-13.4,4.5-20.3,12.6-20.3c8.4,0,12.6,6.8,12.6,20.3c0,14.7-4.2,22-12.6,22   C877.3,711.6,873.1,704.3,873.1,689.6 M870.9,669.2c-3.7,4.7-5.6,11.5-5.6,20.4c0,19,7.8,29.1,20.4,29.1   c12.7,0,20.5-10.1,20.5-29.1c0-8.9-1.9-15.7-5.7-20.4c-3.7-4.7-8.7-7.1-14.8-7.1C879.6,662,874.7,664.4,870.9,669.2 M685.2,706.4   c0-3.2,1.7-5,8.2-6.8c8.2-2.3,9.5-3.3,9.9-4.5h0.2v9.2c0,4.3-3.9,7.8-10.8,7.8C687.7,712,685.2,710.2,685.2,706.4 M677.8,706.8   c0,6.8,4.7,11.9,14.1,11.9c3.3,0,6-0.6,8.1-1.9c2.1-1.3,3.5-2.5,4-3.6h0.2v4.3h6.6v-27.2c0-10.3-6.4-15.1-16-15.1   c-8.9,0-14.5,4.9-16,12l6.6,2.3c1.2-5.2,4.4-7.8,9.5-7.8c5.4,0,8.1,2.4,8.1,5.6c0,1.6-0.8,2.8-2.4,3.6c-1.6,0.9-4.6,1.8-9,3   C681.6,696.5,677.8,699.9,677.8,706.8 M693.2,671.3h6.5l-6.2-9.5h-8.8L693.2,671.3z M657.5,676.4h-6.2v6.6h6.1v21.7   c0,8.7,3.3,12.9,12.2,12.9h3.6v-7.3H670c-4.3,0-5.3-1.7-5.3-6.4V683h10.2v-6.6h-10.2v-10.1h-7.2V676.4z M651.4,511.7   c0,7.8-6.9,13.9-19.3,13.9c-8.9,0-13.3-3.3-13.3-10.1c0-5.7,3.1-9,14.6-12.2c14.7-4,17.1-5.8,17.8-8h0.3V511.7z M636,459.8   c-16,0-26,8.7-28.6,21.5l11.8,4.2c2.2-9.3,7.9-13.9,17.1-13.9c9.6,0,14.4,4.3,14.4,10c0,2.9-1.4,5-4.3,6.5   c-2.8,1.5-8.2,3.2-16.1,5.3c-17.9,4.4-24.7,10.5-24.7,22.9c0,12.2,8.5,21.2,25.3,21.2c6,0,10.7-1.1,14.4-3.3   c3.7-2.4,6.2-4.4,7.2-6.5h0.3v7.8h11.8v-48.6C664.6,468.4,653.2,459.8,636,459.8 M633,452.9h11.7l-11.1-16.9h-15.7L633,452.9z    M646.5,676.4H639v41.1h7.5V676.4z M646.9,660.9h-8.2v8h8.2V660.9z M630.3,660.9h-7.8v56.7h7.8V660.9z M620.5,604.6   c5.4,0,8,3.1,8,9.2v26.1h7.1v-26.6c0-5.4,3-8.7,8.3-8.7c5.4,0,8,3.1,8,9.2v26.1h7.1v-28c0-8.7-5.7-14.3-14.8-14.3   c-5,0-9.2,2.6-11.4,5.8h-0.2c-1.9-3.3-5.7-5.8-10.6-5.8c-4.3,0-8.4,2.1-10.3,5.1h-0.2v-4h-6.8v41.1h7.4v-26.6   C612.2,608.2,614.9,604.6,620.5,604.6 M586.1,697c0-9.5,4.6-14.8,11.4-14.8c6.6,0,11.2,5.5,11.2,14.8c0,9.4-4.6,14.9-11.2,14.9   C590.7,711.9,586.1,706.5,586.1,697 M584.1,681c-3.6,3.9-5.4,9.2-5.4,15.9c0,6.8,1.8,12.2,5.3,16c3.6,3.8,8.1,5.7,13.6,5.7   c5.4,0,9.9-1.9,13.4-5.7c3.5-3.8,5.3-9.2,5.3-16c0-6.8-1.8-12-5.4-15.9c-3.6-3.9-8-5.8-13.2-5.8C592.1,675.2,587.7,677.2,584.1,681    M545.1,691.6c0-2.5,0.9-4.7,2.7-6.6c1.9-1.9,4.3-2.9,7.3-2.9c7.5,0,11.9,5.4,11.9,14.8c0,9.4-4.4,14.9-11.9,14.9   c-2.9,0-5.3-0.9-7.2-2.6c-1.9-1.8-2.8-3.8-2.8-6.2V691.6z M544.8,676.4h-7.2V735h7.5v-21.4h0.2c1.6,2.3,5.7,5.1,11.3,5.1   c5.2,0,9.5-1.9,12.9-5.8c3.3-4,5-9.2,5-15.9c0-6.6-1.8-11.8-5.3-15.8c-3.5-4-7.7-6-12.7-6c-4,0-7.9,1.8-9.5,3.1   c-0.9,0.7-1.5,1.3-2,2h-0.2V676.4z M547.6,639.9v-24.1c0-6.8,2.5-10.1,7.5-10.1c1.2,0,2.2,0.2,3.2,0.6l1.3-7.5   c-1-0.5-2.3-0.8-3.6-0.8c-3.4,0-6.8,1.9-8.5,5.1h-0.2v-4.4h-7.2v41.1H547.6z M504.2,625.5V614c0-2.5,0.9-4.7,2.7-6.6   c1.9-1.9,4.3-2.9,7.3-2.9c7.5,0,11.9,5.4,11.9,14.8s-4.4,14.9-11.9,14.9c-2.9,0-5.3-0.9-7.2-2.6   C505.1,629.9,504.2,627.9,504.2,625.5 M504.2,657.4v-21.4h0.2c1.6,2.3,5.7,5.1,11.3,5.1c5.2,0,9.5-1.9,12.9-5.8c3.3-4,5-9.2,5-15.9   c0-6.6-1.8-11.8-5.3-15.8c-3.5-4-7.7-6-12.7-6c-4,0-7.9,1.8-9.5,3.1c-0.9,0.7-1.5,1.3-2,2h-0.2v-4h-7.2v58.6H504.2z M501.1,697   c0-9.5,4.6-14.8,11.4-14.8c6.6,0,11.2,5.5,11.2,14.8c0,9.4-4.6,14.9-11.2,14.9C505.7,711.9,501.1,706.5,501.1,697 M499,681   c-3.6,3.9-5.4,9.2-5.4,15.9c0,6.8,1.8,12.2,5.3,16c3.6,3.8,8.1,5.7,13.6,5.7c5.4,0,9.9-1.9,13.4-5.7c3.5-3.8,5.3-9.2,5.3-16   c0-6.8-1.8-12-5.4-15.9c-3.6-3.9-8-5.8-13.2-5.8C507.1,675.2,502.7,677.2,499,681 M450.2,676.4H444v6.6h6.1v21.7   c0,8.7,3.3,12.9,12.2,12.9h3.6v-7.3h-3.1c-4.3,0-5.3-1.7-5.3-6.4V683h10.2v-6.6h-10.2v-10.1h-7.2V676.4z M441.3,613.3   c0-5,2.8-8.7,8.3-8.7c5.4,0,8,3.1,8,9.2v26.1h7.1v-26.6c0-5.4,3-8.7,8.3-8.7c5.4,0,8,3.1,8,9.2v26.1h7.1v-28   c0-8.7-5.7-14.3-14.8-14.3c-5,0-9.2,2.6-11.4,5.8h-0.2c-1.9-3.3-5.7-5.8-10.6-5.8c-4.3,0-8.4,2.1-10.3,5.1h-0.2v-4h-6.8v41.1h7.4   V613.3z M412.4,693.3c0.1-2.9,1.1-5.4,3-7.8c1.9-2.4,4.6-3.6,8.1-3.6c7.2,0,10.8,5,11.1,11.3H412.4z M410,681.2   c-3.5,4-5.3,9.2-5.3,15.8c0,6.6,1.8,11.9,5.4,15.8c3.6,4,8.2,5.9,13.9,5.9c8.2,0,13.9-4.2,17.1-10l-5.7-4.3   c-1.2,2.1-1.7,2.8-3.6,4.7c-1.9,1.9-4.5,2.8-7.9,2.8c-7.2,0-11.2-5.4-11.4-12.7h29.8V697c0-6.7-1.7-12-5.2-15.8   c-3.5-4-7.9-5.9-13.4-5.9C418,675.2,413.5,677.2,410,681.2 M420,619.3c0,9.4-4.6,14.9-11.2,14.9c-6.8,0-11.4-5.4-11.4-14.9   c0-9.5,4.6-14.8,11.4-14.8C415.4,604.5,420,610,420,619.3 M422.2,635.3c3.5-3.8,5.3-9.2,5.3-16c0-6.8-1.8-12-5.4-15.9   c-3.6-3.9-8-5.8-13.2-5.8c-5.4,0-9.8,1.9-13.4,5.8c-3.6,3.9-5.4,9.2-5.4,15.9c0,6.8,1.8,12.2,5.3,16c3.6,3.8,8.1,5.7,13.6,5.7   C414.3,641.1,418.7,639.1,422.2,635.3 M354.4,663.2h-9.9v54.3h7.8v-41.3h0.2l17.6,41.3h1.9l17.6-41.3h0.2v41.3h7.8v-54.3h-9.8   l-16.6,39.6h-0.2L354.4,663.2z M348.2,591.7c-4.5,4.9-6.8,11.7-6.8,20.6c0,10,2.8,17.9,7.1,22.3c4.4,4.3,9.9,6.5,16.1,6.5   c12.1,0,20-7.9,21-20.6l-8.3-1.3c-0.9,9.7-5.2,14.6-12.7,14.6c-8.9,0-15.1-7.1-15.1-21.5c0-13.4,6.4-20.6,15.1-20.6   c7.3,0,11.6,4.4,13,13.2l7.9-1.3c-0.7-5.8-2.9-10.5-6.8-14c-3.7-3.5-8.5-5.2-14.2-5.2C358.2,584.4,352.8,586.8,348.2,591.7    M120.4,358.4H92v18h28.4c10.7,0,19.4,8.7,19.4,19.4c0,10.7-8.7,19.4-19.4,19.4H92v18h28.4c10.7,0,19.4,8.7,19.4,19.4   c0,10.7-8.7,19.4-19.4,19.4H92v18h28.4c20.6,0,37.4-16.8,37.4-37.4c0-11.4-5.1-21.5-13.1-28.4c8-6.9,13.1-17.1,13.1-28.4   C157.9,375.2,141.1,358.4,120.4,358.4 M105.1,311H92v18h13.1c32.6,0,62.6,14.5,76.6,36.9c10.3,16.5,10.8,35.3,1.4,54.4l-2,4l2,4   c11.5,22.7,5.5,41.2-1.5,52.7c-14.1,23-44.8,38.5-76.5,38.5H92v18h13.1c38.3,0,74.3-18.5,91.9-47.1c12.6-20.6,14.1-44,4.2-66.3   c10.1-23.3,8.7-47.3-4.1-67.9C179.8,328.8,143.7,311,105.1,311 M270.8,424.2c0-88.2-71.7-160-159.9-160H92v18h18.9   c78.2,0,141.9,63.7,141.9,142c0,78.3-63.6,142-141.9,142H92v18h18.9C199,584.2,270.8,512.5,270.8,424.2 M398.2,383.1   c0,12.6-7.9,16.4-23.3,16.4h-19.6v-32.1h19.8C390.8,367.4,398.2,371.3,398.2,383.1 M394.6,341.8c0,9.2-5.6,13.7-16.8,13.7h-22.5   V328h22.3C388.3,328,394.6,332.9,394.6,341.8 M396.5,360.1v-0.3c7.9-4,11.9-10.4,11.9-19.2c0-7.4-2.6-13.3-7.8-18.2   s-12.1-7.4-20.7-7.4h-38.6v97.2h35.7c23.3,0,35-9.7,35-29.1C412.1,371.3,405,363.3,396.5,360.1 M399.6,486.7   c0,26-10.4,35.9-28.6,35.9h-15.7v-71.5h16.5C388.9,451.2,399.6,463.3,399.6,486.7 M414.6,486.7c0-33.6-20.5-48.4-42.1-48.4h-31.1   v97.2h30.3c11.5,0,21.1-3.2,29.4-10.3C409.4,518,414.6,504.5,414.6,486.7 M464.8,388.5c0,7.8-6.9,13.9-19.3,13.9   c-8.9,0-13.3-3.3-13.3-10.1c0-5.7,3.1-9,14.6-12.2c14.7-4,17.1-5.8,17.8-8h0.3V388.5z M466.2,412.3H478v-48.6   c0-18.5-11.4-27.1-28.6-27.1c-16,0-26,8.7-28.6,21.5l11.8,4.2c2.2-9.3,7.9-13.9,17.1-13.9c9.6,0,14.4,4.3,14.4,10   c0,2.9-1.4,5-4.3,6.5c-2.8,1.5-8.2,3.2-16.1,5.3c-17.9,4.4-24.7,10.5-24.7,22.9c0,12.2,8.5,21.2,25.3,21.2c6,0,10.7-1.1,14.4-3.3   c3.7-2.4,6.2-4.4,7.2-6.5h0.3V412.3z M435.4,492.2c0.1-5.1,1.9-9.7,5.4-13.9c3.5-4.3,8.2-6.4,14.4-6.4c12.9,0,19.3,9,19.8,20.3   H435.4z M435.3,502.7h53.3v-4c0-11.9-3.1-21.4-9.3-28.3c-6.2-7.1-14.2-10.5-24-10.5c-9.9,0-17.9,3.6-24.3,10.7   c-6.2,7.1-9.4,16.4-9.4,28.2c0,11.8,3.2,21.2,9.6,28.3c6.4,7.1,14.7,10.5,24.8,10.5c14.6,0,24.8-7.5,30.5-17.9l-10.1-7.6   c-2.2,3.7-3.1,5-6.5,8.5c-3.3,3.3-8.1,5-14.2,5C442.8,525.5,435.7,515.9,435.3,502.7 M492.3,676.5c-1-0.5-2.3-0.8-3.6-0.8   c-3.4,0-6.8,1.9-8.5,5.1h-0.2v-4.4h-7.2v41.1h7.5v-24.1c0-6.8,2.5-10.1,7.5-10.1c1.2,0,2.2,0.2,3.2,0.6L492.3,676.5z M524.1,352.2   l2.4-13.3c-1.8-1-4-1.4-6.5-1.4c-6.1,0-12.2,3.5-15.1,9.2h-0.3v-7.9h-12.9v73.6h13.5v-43.2c0-12.1,4.4-18,13.3-18   C520.5,351.1,522.3,351.5,524.1,352.2 M541.2,375.5c0-16.8,8-26.5,20.4-26.5c10.4,0,16.1,7.1,17.6,16.9l13.2-2.1   c-1-8.1-4.2-14.6-9.9-19.6c-5.6-5.1-12.5-7.6-21-7.6c-9.6,0-17.5,3.5-24,10.4c-6.5,6.8-9.7,16.4-9.7,28.5c0,12.1,3.1,21.5,9.3,28.5   c6.2,6.9,14.4,10.4,24.3,10.4c17.3,0,28.7-10.4,31.4-27.5l-13.5-3.3c-1.7,10.7-7.2,18.6-17.6,18.6   C549,402.1,541.2,392.3,541.2,375.5 M583.2,535.5h12.8v-50.1c0-15.5-10.1-25.5-26.4-25.5c-8.9,0-16.5,4.7-20.4,10.4h-0.3   c-3.5-6-10.3-10.4-19-10.4c-7.6,0-15,3.7-18.5,9.2h-0.3v-7.1h-12.2v73.6h13.2v-47.6c0-9,5-15.5,14.9-15.5c9.6,0,14.3,5.6,14.3,16.5   v46.6H554v-47.6c0-9.6,5.4-15.5,14.9-15.5c9.6,0,14.3,5.6,14.3,16.5V535.5z M590.9,619.3c0,9.4-4.6,14.9-11.2,14.9   c-6.8,0-11.4-5.4-11.4-14.9c0-9.5,4.6-14.8,11.4-14.8C586.3,604.5,590.9,610,590.9,619.3 M593,635.3c3.5-3.8,5.3-9.2,5.3-16   c0-6.8-1.8-12-5.4-15.9c-3.6-3.9-8-5.8-13.2-5.8c-5.4,0-9.8,1.9-13.4,5.8c-3.6,3.9-5.4,9.2-5.4,15.9c0,6.8,1.8,12.2,5.3,16   c3.6,3.8,8.1,5.7,13.6,5.7C585.1,641.1,589.6,639.1,593,635.3 M612.4,369c0.1-5.1,1.9-9.7,5.4-13.9c3.5-4.3,8.2-6.4,14.4-6.4   c12.9,0,19.3,9,19.8,20.3H612.4z M612.3,379.5h53.3v-4c0-11.9-3.1-21.4-9.3-28.3c-6.2-7.1-14.2-10.5-24-10.5   c-9.9,0-17.9,3.6-24.3,10.7c-6.2,7.1-9.4,16.4-9.4,28.2c0,11.8,3.2,21.2,9.6,28.3c6.4,7.1,14.7,10.5,24.8,10.5   c14.6,0,24.8-7.5,30.5-17.9l-10.1-7.6c-2.2,3.7-3.1,5-6.5,8.5c-3.3,3.3-8,5-14.2,5C619.8,402.3,612.7,392.7,612.3,379.5    M674.9,598.8h-7.4v41.1h7.4V598.8z M683,584.2h-8.8l-6.1,9.5h6.5L683,584.2z M675.8,412.3h13.9V311h-13.9V412.3z M696.8,597.6   c-4.6,0-8.2,1.2-10.8,3.5c-2.6,2.3-3.9,5-3.9,8.2c0,6.1,3.9,9.2,13.8,12c4.7,1.3,7.9,2.5,9.4,3.4c1.5,0.9,2.3,2.3,2.3,4   c0,3.5-3.3,5.9-9.3,5.9c-6.3,0-9.9-3.3-10.6-10.1l-7,1.6c0.5,4.3,2.2,7.8,5.1,10.7c2.9,2.9,7.2,4.3,12.7,4.3c5.4,0,9.3-1.2,12-3.6   c2.7-2.5,4-5.4,4-8.6c0-3.3-1-5.8-3-7.8c-1.9-1.9-5.4-3.6-10.6-5.1c-5.1-1.5-8.4-2.6-9.8-3.3c-1.4-0.8-2.1-1.9-2.1-3.5   c0-2.8,2.8-5.1,7.8-5.1c5,0,8.2,2.5,9.9,7.4l6.5-1.8C711.3,602.3,706,597.6,696.8,597.6 M753.7,375.5c0,16.8-8.2,26.6-20,26.6   c-12.1,0-20.4-9.6-20.4-26.6c0-17.1,8.2-26.5,20.4-26.5C745.5,349,753.7,358.8,753.7,375.5 M757.6,404.1c6.2-6.8,9.4-16.4,9.4-28.6   c0-12.1-3.2-21.5-9.7-28.5c-6.4-6.9-14.3-10.4-23.6-10.4c-9.6,0-17.5,3.5-24,10.4c-6.5,6.9-9.7,16.4-9.7,28.5   c0,12.2,3.2,21.8,9.4,28.6c6.4,6.8,14.4,10.3,24.3,10.3C743.5,414.4,751.4,410.9,757.6,404.1 M736.4,717.5h36.4v-7.6h-28   c0-2.7,0.5-4.7,1.5-6.2c0.5-0.8,1.1-1.5,1.9-2.2c1.1-0.9,4.3-2.7,9.5-5.4c1.9-1,3.4-1.9,4.3-2.4c1-0.5,2.3-1.4,3.9-2.6   c1.6-1.2,2.8-2.3,3.6-3.4c1.6-2.2,3.1-5.7,3.1-9.5c0-4.7-1.6-8.5-4.8-11.6c-3.2-3-7.5-4.6-12.8-4.6c-5.5,0-9.9,1.6-13.4,4.7   c-3.4,3.2-5.3,7.6-5.5,13.3l7.5,0.9c0.5-7.7,4.4-12,11.2-12c3.3,0,5.8,0.9,7.6,2.7c1.8,1.8,2.7,3.8,2.7,6.1   c0.4,3.1-1.6,5.7-3.3,7.5c-0.4,0.5-1.3,1.2-2.8,2c-1.4,0.9-2.4,1.4-3.1,1.8l-4.1,2.2c-6.3,3.3-10.4,6.2-12.2,8.8   c-2.1,2.9-3.1,6.8-3.1,11.7V717.5z M784.9,689.6c0-13.4,4.5-20.3,12.6-20.3c8.4,0,12.6,6.8,12.6,20.3c0,14.7-4.2,22-12.6,22   C789.1,711.6,784.9,704.3,784.9,689.6 M782.7,669.2c-3.7,4.7-5.6,11.5-5.6,20.4c0,19,7.8,29.1,20.4,29.1   c12.7,0,20.5-10.1,20.5-29.1c0-8.9-1.9-15.7-5.7-20.4c-3.7-4.7-8.7-7.1-14.8-7.1S786.5,664.4,782.7,669.2 M824.1,412.3h13.6v-48.2   c0-17.1-10.4-27.5-26.5-27.5c-8.2,0-16.2,4-20.1,9.2h-0.3v-7.1h-13.2v73.6h13.5v-46.2c0-10.5,6.9-16.9,17.5-16.9   c10.4,0,15.5,6.2,15.5,18.9V412.3z M853.8,666c-3.2-2.6-7.1-4-12-4c-9.5,0-16.2,5.9-17.2,15.3l7.3,1.3c0.9-6.4,4.1-9.6,9.8-9.6   c5.8,0,9.5,3.2,9.5,8.5c0,3.3-1.7,5.7-4.2,6.7c-2.5,0.9-4.5,1.3-6.7,1.3h-2.2v6.4h3.1c7.5,0,12,3.4,12,10c0,5.7-4,9.8-11.2,9.8   c-7.7,0-11.4-4.3-12.6-13.5l-7.5,1.6c1.5,12.7,8.9,18.9,20.2,18.9c5.6,0,10.1-1.6,13.6-4.7s5.2-7,5.2-11.7c0-8.1-4.6-12.7-9.9-14.3   v-0.2c4.1-1.6,7.5-5.2,7.5-11.2C858.6,672.1,857,668.5,853.8,666 M893,388.5c0,7.8-6.9,13.9-19.3,13.9c-8.9,0-13.3-3.3-13.3-10.1   c0-5.7,3.1-9,14.6-12.2c14.7-4,17.1-5.8,17.8-8h0.3V388.5z M894.4,412.3h11.8v-48.6c0-18.5-11.4-27.1-28.6-27.1   c-16,0-26,8.7-28.6,21.5l11.8,4.2c2.2-9.3,7.9-13.9,17.1-13.9c9.6,0,14.4,4.3,14.4,10c0,2.9-1.4,5-4.3,6.5   c-2.8,1.5-8.2,3.2-16.1,5.3c-17.9,4.4-24.7,10.5-24.7,22.9c0,12.2,8.5,21.2,25.3,21.2c6,0,10.7-1.1,14.4-3.3   c3.7-2.4,6.2-4.4,7.2-6.5h0.3V412.3z"/>
</g>
</svg>