<svg xmlns="http://www.w3.org/2000/svg" width="90.779" height="54" viewBox="0 0 90.779 54"><defs><style>.a{fill:#fff;}.b{fill:#9ca6a6;}</style></defs><rect class="a" width="1.021" height="5.746" transform="translate(46.251 13.438)"/><path class="b" d="M416.571-421.511s-7.175.173-7.873,9.448-1.748,24.5-2.1,27.819a57.79,57.79,0,0,1-1.05,6.3,9.641,9.641,0,0,0,8.923-5.249c1.4-2.624,2.273-9.8,2.273-9.8Z" transform="translate(-405.548 431.934)"/><path class="a" d="M480.077-479.281c-.163,1.827,3.075,1.622,7.443,1.349,2.561-.163,3.674.877,3.674,2.1s-.525,3.323-4.2,5.249-7.911,4.908-7.911,7.007,3.763,2.331,6.861,2.441c3.018.11,4.551-.173,5.249,2.624s-4.9,6.823-6.824,8.923-5.018,4.21-4.724,7.348c.23,2.446,14.524-1.748,17.846-6.3s3.5-7.175,1.575-15.747-2.624-10.849-2.1-15.222a71.543,71.543,0,0,1,1.575-8.4s-18.171,5.207-18.465,8.624" transform="translate(-466.876 487.905)"/><path class="a" d="M638.651-390.623v1.535h.91a1.293,1.293,0,0,0,.851-.281.65.65,0,0,0,.226-.533.646.646,0,0,0-.241-.522,1.271,1.271,0,0,0-.807-.2Zm-1.125-.981h1.791a4.892,4.892,0,0,1,1.43.155,1.527,1.527,0,0,1,.762.542,1.528,1.528,0,0,1,.29.945,1.906,1.906,0,0,1-.166.8,1.39,1.39,0,0,1-.394.492,2.086,2.086,0,0,1-.531.322,2.8,2.8,0,0,1-1.066.185h-.992v2.22h-1.125Z" transform="translate(-596.745 405.126)"/><path class="a" d="M678.314-380.767v-1.01a2.667,2.667,0,0,0-1.214.455.639.639,0,0,0-.255.492.493.493,0,0,0,.146.366.507.507,0,0,0,.372.144,1.02,1.02,0,0,0,.431-.113,2.8,2.8,0,0,0,.52-.335m-2.283-2.309a2,2,0,0,1,.718-.542,2.171,2.171,0,0,1,.9-.187,2.026,2.026,0,0,1,.873.178,1.2,1.2,0,0,1,.475.442,1.388,1.388,0,0,1,.2.775v1.88a2.538,2.538,0,0,0,.045.429,2.679,2.679,0,0,0,.1.4h-.891a2.954,2.954,0,0,1-.1-.414,2.056,2.056,0,0,1-.568.363,1.57,1.57,0,0,1-.609.122,1.266,1.266,0,0,1-.9-.331,1.043,1.043,0,0,1-.353-.786,1.2,1.2,0,0,1,.163-.6,1.506,1.506,0,0,1,.477-.5,2.649,2.649,0,0,1,.792-.342,6.77,6.77,0,0,1,.966-.163,1.115,1.115,0,0,0-.044-.37.536.536,0,0,0-.233-.277.784.784,0,0,0-.411-.1,1.194,1.194,0,0,0-.988.536Z" transform="translate(-627.55 398.871)"/><path class="a" d="M710.577-391.6h3.8v.984H711.69v1.247h1.636v.84H711.69v1.613h2.683v.977h-3.8Z" transform="translate(-655.37 405.126)"/><path class="a" d="M733.406-380.8a2.32,2.32,0,0,0,.544.322,1.38,1.38,0,0,0,.5.092.813.813,0,0,0,.5-.124.354.354,0,0,0,.161-.283.362.362,0,0,0-.144-.274,1.407,1.407,0,0,0-.625-.207,2.061,2.061,0,0,1-1.125-.477,1.109,1.109,0,0,1-.329-.8,1.143,1.143,0,0,1,.429-.873,1.626,1.626,0,0,1,1.121-.381,2.346,2.346,0,0,1,.749.118,2.541,2.541,0,0,1,.764.452l-.592.5a4.213,4.213,0,0,0-.586-.313.969.969,0,0,0-.324-.057.646.646,0,0,0-.44.144.424.424,0,0,0-.167.326.382.382,0,0,0,.137.289,1.671,1.671,0,0,0,.677.24,2.783,2.783,0,0,1,1.044.377.952.952,0,0,1,.414.807,1.174,1.174,0,0,1-.429.914,1.827,1.827,0,0,1-1.243.377,2.165,2.165,0,0,1-.894-.172,2.484,2.484,0,0,1-.756-.561Z" transform="translate(-673.192 398.872)"/><path class="a" d="M752.857-389.975h1.021v1.3h.711v.733h-.711v2.153a.319.319,0,0,0,.128.27,1.168,1.168,0,0,0,.583.107v.833l-.359.007a1.874,1.874,0,0,1-.757-.126.967.967,0,0,1-.448-.422,1.328,1.328,0,0,1-.168-.67v-2.153h-.618v-.733h.618Z" transform="translate(-688.794 403.819)"/><path class="a" d="M769.461-382.769a2.69,2.69,0,0,1,.648-.8,1.212,1.212,0,0,1,.662-.239v1.036h-.093a1.224,1.224,0,0,0-.71.231,1.432,1.432,0,0,0-.507.661v2.176h-1.028v-4.033h1.028Z" transform="translate(-701.789 398.872)"/><path class="a" d="M785.643-380.767v-1.01a2.666,2.666,0,0,0-1.214.455.638.638,0,0,0-.255.492.493.493,0,0,0,.146.366.507.507,0,0,0,.372.144,1.021,1.021,0,0,0,.431-.113,2.8,2.8,0,0,0,.52-.335m-2.283-2.309a1.994,1.994,0,0,1,.718-.542,2.172,2.172,0,0,1,.9-.187,2.028,2.028,0,0,1,.873.178,1.2,1.2,0,0,1,.475.442,1.389,1.389,0,0,1,.2.775v1.88a2.537,2.537,0,0,0,.044.429,2.672,2.672,0,0,0,.1.4h-.891a2.929,2.929,0,0,1-.1-.414,2.056,2.056,0,0,1-.568.363,1.572,1.572,0,0,1-.609.122,1.265,1.265,0,0,1-.9-.331,1.042,1.042,0,0,1-.353-.786,1.2,1.2,0,0,1,.163-.6,1.509,1.509,0,0,1,.477-.5,2.651,2.651,0,0,1,.792-.342,6.771,6.771,0,0,1,.966-.163,1.117,1.117,0,0,0-.044-.37.537.537,0,0,0-.234-.277.783.783,0,0,0-.411-.1,1.194,1.194,0,0,0-.988.536Z" transform="translate(-713.686 398.871)"/><path class="a" d="M803.961-389.975h1.021v1.3h.711v.733h-.711v2.153a.318.318,0,0,0,.128.27,1.166,1.166,0,0,0,.583.107v.833l-.359.007a1.875,1.875,0,0,1-.757-.126.968.968,0,0,1-.448-.422,1.327,1.327,0,0,1-.168-.67v-2.153h-.618v-.733h.618Z" transform="translate(-729.976 403.819)"/><path class="a" d="M820.791-388.333a1.065,1.065,0,0,0-.259-.71.772.772,0,0,0-.581-.248.735.735,0,0,0-.557.242,1.117,1.117,0,0,0-.257.716Zm-2.383-3.2h1.217l.992,1.162h-.751Zm3.215,4.677a2.4,2.4,0,0,1-.259.4,1.746,1.746,0,0,1-.411.359,1.764,1.764,0,0,1-.466.207,1.884,1.884,0,0,1-.5.066,1.942,1.942,0,0,1-.971-.261,1.715,1.715,0,0,1-.7-.758,2.492,2.492,0,0,1-.244-1.112,2.064,2.064,0,0,1,.527-1.485,1.781,1.781,0,0,1,1.349-.553,1.7,1.7,0,0,1,1.288.5,1.956,1.956,0,0,1,.485,1.412c0,.079,0,.195-.011.348h-2.56a1.265,1.265,0,0,0,.255.814.763.763,0,0,0,.6.266.763.763,0,0,0,.466-.142,1.162,1.162,0,0,0,.333-.42Z" transform="translate(-741.756 405.067)"/><path class="a" d="M840.9-383.624a.763.763,0,0,0-.557.22.718.718,0,0,0-.224.531.72.72,0,0,0,.224.529.74.74,0,0,0,.542.222.746.746,0,0,0,.546-.222.719.719,0,0,0,.224-.529.72.72,0,0,0-.224-.529.729.729,0,0,0-.531-.222m-.64,3.412a.75.75,0,0,0-.28.2.417.417,0,0,0-.094.266.384.384,0,0,0,.2.329,1.856,1.856,0,0,0,.977.189,1.727,1.727,0,0,0,.914-.178.352.352,0,0,0,.181-.3.329.329,0,0,0-.152-.281,1.64,1.64,0,0,0-.714-.128,9.025,9.025,0,0,1-1.028-.1M842.024-384a1.945,1.945,0,0,1,.531-.292,1.361,1.361,0,0,1,.405-.085h.1v.673h-.192a.952.952,0,0,0-.455.115,1.336,1.336,0,0,1,.192.718,1.291,1.291,0,0,1-.435,1,1.778,1.778,0,0,1-1.237.394,4.637,4.637,0,0,1-.555-.037.627.627,0,0,0-.2.153.278.278,0,0,0-.066.176.246.246,0,0,0,.111.207.765.765,0,0,0,.418.1l1.047.037a1.528,1.528,0,0,1,.984.3.942.942,0,0,1,.311.733,1.115,1.115,0,0,1-.454.916,2.609,2.609,0,0,1-1.574.357,4.165,4.165,0,0,1-1.218-.163,1.09,1.09,0,0,1-.547-.346.841.841,0,0,1-.189-.542.75.75,0,0,1,.172-.5,1.074,1.074,0,0,1,.564-.309,1.04,1.04,0,0,1-.37-.281.593.593,0,0,1-.119-.37.614.614,0,0,1,.135-.385.884.884,0,0,1,.409-.274,1.466,1.466,0,0,1-.474-.5,1.344,1.344,0,0,1-.159-.657,1.371,1.371,0,0,1,.394-.993,1.806,1.806,0,0,1,1.33-.405,2.919,2.919,0,0,1,.644.065,1.624,1.624,0,0,1,.5.2" transform="translate(-758.508 399.326)"/><path class="a" d="M863.057-390.317h1.014v4.033h-1.014Zm0-1.713h1.014v1.017h-1.014Z" transform="translate(-777.763 405.468)"/><path class="a" d="M876.917-380.786a2.54,2.54,0,0,1-.293.555,1.514,1.514,0,0,1-.527.44,1.616,1.616,0,0,1-.735.155,1.676,1.676,0,0,1-1.428-.7,2.253,2.253,0,0,1-.411-1.365,2.135,2.135,0,0,1,.544-1.521,1.755,1.755,0,0,1,1.332-.581,1.485,1.485,0,0,1,.661.137,1.538,1.538,0,0,1,.49.381,2.482,2.482,0,0,1,.318.514l-.866.229a1.106,1.106,0,0,0-.294-.344.588.588,0,0,0-.342-.1.631.631,0,0,0-.509.27,1.4,1.4,0,0,0-.213.866,2.806,2.806,0,0,0,.115.832.779.779,0,0,0,.252.405.607.607,0,0,0,.388.139.623.623,0,0,0,.42-.167,1.1,1.1,0,0,0,.3-.537Z" transform="translate(-786.139 398.871)"/><path class="a" d="M637.451-346.078h1.769l.942,3.508.949-3.508h1.768v5.661h-1.062v-5.04l-1.364,5.04h-.587l-1.364-5.04v5.04h-1.051Z" transform="translate(-596.691 368.582)"/><path class="a" d="M672.62-336.625a1.065,1.065,0,0,0-.259-.71.771.771,0,0,0-.581-.248.734.734,0,0,0-.557.242,1.117,1.117,0,0,0-.257.716Zm.833,1.48a2.407,2.407,0,0,1-.259.4,1.749,1.749,0,0,1-.411.359,1.758,1.758,0,0,1-.466.207,1.886,1.886,0,0,1-.5.067,1.944,1.944,0,0,1-.971-.261,1.715,1.715,0,0,1-.7-.758,2.492,2.492,0,0,1-.245-1.112,2.064,2.064,0,0,1,.527-1.486,1.782,1.782,0,0,1,1.349-.553,1.7,1.7,0,0,1,1.288.505,1.955,1.955,0,0,1,.484,1.412c0,.079,0,.2-.011.348h-2.56a1.263,1.263,0,0,0,.255.814.763.763,0,0,0,.6.266.76.76,0,0,0,.466-.142,1.16,1.16,0,0,0,.333-.42Z" transform="translate(-622.718 362.331)"/><path class="a" d="M691.205-344.448h1.021v1.3h.711v.733h-.711v2.154a.319.319,0,0,0,.128.27,1.167,1.167,0,0,0,.583.107v.833l-.359.007a1.886,1.886,0,0,1-.757-.125.968.968,0,0,1-.448-.422,1.327,1.327,0,0,1-.168-.67v-2.154h-.618v-.733h.618Z" transform="translate(-639.317 367.275)"/><path class="a" d="M707.805-337.243a2.694,2.694,0,0,1,.648-.8,1.214,1.214,0,0,1,.662-.239v1.036h-.092a1.224,1.224,0,0,0-.71.231,1.432,1.432,0,0,0-.507.661v2.176h-1.028v-4.033h1.028Z" transform="translate(-652.31 362.331)"/><path class="a" d="M723.034-337.606a.644.644,0,0,0-.547.27,1.945,1.945,0,0,0-.266,1.147,1.715,1.715,0,0,0,.237,1.029.7.7,0,0,0,.57.307.679.679,0,0,0,.425-.15.832.832,0,0,0,.277-.428,2.914,2.914,0,0,0,.122-.877,2.213,2.213,0,0,0-.1-.682.93.93,0,0,0-.294-.466.67.67,0,0,0-.422-.15m-.1-.673a1.86,1.86,0,0,1,1.412.537,2.12,2.12,0,0,1,.512,1.524,2.2,2.2,0,0,1-.518,1.554,1.692,1.692,0,0,1-1.3.559,1.8,1.8,0,0,1-1.293-.529,2.092,2.092,0,0,1-.549-1.576,2.188,2.188,0,0,1,.492-1.53,1.609,1.609,0,0,1,1.24-.538" transform="translate(-663.894 362.331)"/><path class="a" d="M745.518-337.091v1.747a1.889,1.889,0,0,0,.414.233,1.055,1.055,0,0,0,.381.077.7.7,0,0,0,.559-.287,1.478,1.478,0,0,0,.233-.931,1.312,1.312,0,0,0-.239-.856.718.718,0,0,0-.568-.287.989.989,0,0,0-.357.076,2.286,2.286,0,0,0-.424.227m0-.7a2,2,0,0,1,.527-.37,1.259,1.259,0,0,1,.531-.122,1.391,1.391,0,0,1,.733.244,1.591,1.591,0,0,1,.6.733,2.665,2.665,0,0,1,.215,1.084,2.3,2.3,0,0,1-.487,1.538,1.383,1.383,0,0,1-1.046.572,1.118,1.118,0,0,1-.473-.109,2.823,2.823,0,0,1-.6-.424v2.091h-1.033v-5.657h1.033Z" transform="translate(-682.582 362.321)"/><path class="a" d="M768.125-337.606a.644.644,0,0,0-.547.27,1.945,1.945,0,0,0-.266,1.147,1.715,1.715,0,0,0,.237,1.029.7.7,0,0,0,.57.307.678.678,0,0,0,.425-.15.833.833,0,0,0,.277-.428,2.914,2.914,0,0,0,.122-.877,2.211,2.211,0,0,0-.1-.682.929.929,0,0,0-.294-.466.671.671,0,0,0-.422-.15m-.1-.673a1.859,1.859,0,0,1,1.412.537,2.121,2.121,0,0,1,.512,1.524,2.2,2.2,0,0,1-.518,1.554,1.692,1.692,0,0,1-1.3.559,1.8,1.8,0,0,1-1.293-.529,2.092,2.092,0,0,1-.55-1.576,2.188,2.188,0,0,1,.492-1.53,1.609,1.609,0,0,1,1.24-.538" transform="translate(-700.081 362.331)"/><rect class="a" width="1.021" height="5.746" transform="translate(70.933 22.419)"/><path class="a" d="M802.543-344.791h1.014v4.033h-1.014Zm0-1.713h1.014v1.017h-1.014Z" transform="translate(-729.335 368.923)"/><path class="a" d="M812.647-344.448h1.021v1.3h.711v.733h-.711v2.154a.319.319,0,0,0,.128.27,1.168,1.168,0,0,0,.583.107v.833l-.359.007a1.886,1.886,0,0,1-.757-.125.969.969,0,0,1-.448-.422,1.325,1.325,0,0,1-.168-.67v-2.154h-.618v-.733h.618Z" transform="translate(-736.927 367.275)"/><path class="a" d="M829.393-341.423v-1.01a2.665,2.665,0,0,0-1.214.455.638.638,0,0,0-.255.492.494.494,0,0,0,.146.367.508.508,0,0,0,.372.144,1.024,1.024,0,0,0,.431-.113,2.78,2.78,0,0,0,.52-.335m-2.1-4.581h1.217l.992,1.162h-.751Zm-.182,2.272a2,2,0,0,1,.718-.542,2.172,2.172,0,0,1,.9-.187,2.026,2.026,0,0,1,.873.178,1.2,1.2,0,0,1,.476.442,1.389,1.389,0,0,1,.2.775v1.88a2.533,2.533,0,0,0,.045.429,2.658,2.658,0,0,0,.1.4h-.891a3,3,0,0,1-.1-.414,2.064,2.064,0,0,1-.568.362,1.573,1.573,0,0,1-.609.122,1.265,1.265,0,0,1-.9-.331A1.044,1.044,0,0,1,827-341.4a1.2,1.2,0,0,1,.163-.6,1.507,1.507,0,0,1,.477-.5,2.647,2.647,0,0,1,.792-.343,6.759,6.759,0,0,1,.966-.163,1.114,1.114,0,0,0-.044-.37.536.536,0,0,0-.234-.277.783.783,0,0,0-.411-.1,1.194,1.194,0,0,0-.988.536Z" transform="translate(-748.903 368.522)"/><path class="a" d="M638.733-296.387v-1.694a1.443,1.443,0,0,0-.361-.294.738.738,0,0,0-.357-.1.687.687,0,0,0-.559.285,1.607,1.607,0,0,0-.226.977,1.459,1.459,0,0,0,.235.918.7.7,0,0,0,.561.292.743.743,0,0,0,.36-.1,1.311,1.311,0,0,0,.346-.289m0-4.588h1.021v5.747h-1.021v-.466a1.814,1.814,0,0,1-.529.4,1.327,1.327,0,0,1-.581.133,1.293,1.293,0,0,1-1.022-.492,2.378,2.378,0,0,1-.5-1.58,2.775,2.775,0,0,1,.142-.916,2.118,2.118,0,0,1,.344-.653,1.568,1.568,0,0,1,.466-.387,1.21,1.21,0,0,1,.583-.142,1.315,1.315,0,0,1,.584.133,1.678,1.678,0,0,1,.514.4Z" transform="translate(-595.596 332.376)"/><path class="a" d="M662.167-291.1a1.065,1.065,0,0,0-.259-.71.773.773,0,0,0-.581-.248.734.734,0,0,0-.557.242,1.116,1.116,0,0,0-.257.716Zm.833,1.48a2.4,2.4,0,0,1-.259.4,1.744,1.744,0,0,1-.411.359,1.775,1.775,0,0,1-.466.207,1.87,1.87,0,0,1-.5.067,1.944,1.944,0,0,1-.971-.261,1.716,1.716,0,0,1-.7-.758,2.492,2.492,0,0,1-.245-1.112,2.066,2.066,0,0,1,.527-1.486,1.782,1.782,0,0,1,1.349-.553,1.7,1.7,0,0,1,1.288.505,1.955,1.955,0,0,1,.485,1.412c0,.079,0,.195-.011.348h-2.56a1.265,1.265,0,0,0,.255.814.763.763,0,0,0,.6.266.763.763,0,0,0,.466-.142,1.164,1.164,0,0,0,.333-.42Z" transform="translate(-614.329 325.786)"/><path class="a" d="M695.633-297.455v1.7h.891a1.573,1.573,0,0,0,.984-.239.771.771,0,0,0,.292-.627.764.764,0,0,0-.266-.6,1.136,1.136,0,0,0-.777-.237Zm0-2.235v1.362h1.188a1,1,0,0,0,.662-.237.561.561,0,0,0,.181-.455.614.614,0,0,0-.211-.485.988.988,0,0,0-.662-.185Zm-1.106-.858h2.412a2.449,2.449,0,0,1,1.276.263,1.211,1.211,0,0,1,.6,1.088,1.236,1.236,0,0,1-.359.9,1.823,1.823,0,0,1-.7.407,1.957,1.957,0,0,1,.6.274,1.493,1.493,0,0,1,.448.529,1.412,1.412,0,0,1,.159.644,1.52,1.52,0,0,1-.2.746,1.47,1.47,0,0,1-.637.586,2.407,2.407,0,0,1-1.11.226h-2.49Z" transform="translate(-642.493 332.035)"/><path class="a" d="M722.785-289.711v-1.01a2.664,2.664,0,0,0-1.214.455.638.638,0,0,0-.255.492.492.492,0,0,0,.146.366.505.505,0,0,0,.372.144,1.025,1.025,0,0,0,.431-.113,2.775,2.775,0,0,0,.52-.335M720.5-292.02a2,2,0,0,1,.718-.542,2.172,2.172,0,0,1,.9-.187,2.03,2.03,0,0,1,.873.177,1.205,1.205,0,0,1,.476.442,1.39,1.39,0,0,1,.2.775v1.88a2.538,2.538,0,0,0,.045.429,2.671,2.671,0,0,0,.1.4h-.891a2.978,2.978,0,0,1-.1-.415,2.051,2.051,0,0,1-.568.363,1.576,1.576,0,0,1-.609.122,1.266,1.266,0,0,1-.9-.331,1.043,1.043,0,0,1-.353-.786,1.193,1.193,0,0,1,.163-.6,1.507,1.507,0,0,1,.477-.5,2.658,2.658,0,0,1,.792-.342,6.753,6.753,0,0,1,.965-.163,1.116,1.116,0,0,0-.044-.37.537.537,0,0,0-.233-.278.786.786,0,0,0-.411-.1,1.193,1.193,0,0,0-.988.536Z" transform="translate(-663.24 325.786)"/><path class="a" d="M744-291.713a2.691,2.691,0,0,1,.648-.8,1.212,1.212,0,0,1,.662-.238v1.036h-.093a1.222,1.222,0,0,0-.71.231,1.431,1.431,0,0,0-.507.661v2.176H742.97v-4.033H744Z" transform="translate(-681.355 325.787)"/><path class="a" d="M760.86-289.73a2.544,2.544,0,0,1-.292.555,1.518,1.518,0,0,1-.527.44,1.619,1.619,0,0,1-.735.155,1.676,1.676,0,0,1-1.428-.7,2.252,2.252,0,0,1-.411-1.365,2.135,2.135,0,0,1,.544-1.521,1.755,1.755,0,0,1,1.332-.581,1.489,1.489,0,0,1,.661.137,1.543,1.543,0,0,1,.49.381,2.489,2.489,0,0,1,.318.514l-.866.229a1.1,1.1,0,0,0-.294-.344.588.588,0,0,0-.342-.1.631.631,0,0,0-.509.27,1.4,1.4,0,0,0-.213.866,2.8,2.8,0,0,0,.115.833.777.777,0,0,0,.252.405.606.606,0,0,0,.388.139.623.623,0,0,0,.42-.167,1.1,1.1,0,0,0,.3-.536Z" transform="translate(-692.998 325.786)"/><path class="a" d="M780.175-291.1a1.065,1.065,0,0,0-.259-.71.772.772,0,0,0-.581-.248.734.734,0,0,0-.557.242,1.115,1.115,0,0,0-.257.716Zm.833,1.48a2.4,2.4,0,0,1-.259.4,1.739,1.739,0,0,1-.411.359,1.769,1.769,0,0,1-.466.207,1.872,1.872,0,0,1-.5.067,1.944,1.944,0,0,1-.971-.261,1.715,1.715,0,0,1-.7-.758,2.492,2.492,0,0,1-.244-1.112,2.065,2.065,0,0,1,.527-1.486,1.782,1.782,0,0,1,1.349-.553,1.7,1.7,0,0,1,1.288.505,1.955,1.955,0,0,1,.485,1.412c0,.079,0,.195-.011.348h-2.56a1.265,1.265,0,0,0,.255.814.763.763,0,0,0,.6.266.763.763,0,0,0,.466-.142,1.164,1.164,0,0,0,.333-.42Z" transform="translate(-709.036 325.786)"/><rect class="a" width="1.021" height="5.747" transform="translate(72.921 31.402)"/><path class="a" d="M813.519-292.076a.644.644,0,0,0-.547.27,1.945,1.945,0,0,0-.266,1.147,1.714,1.714,0,0,0,.237,1.029.7.7,0,0,0,.57.307.674.674,0,0,0,.425-.15.83.83,0,0,0,.277-.427,2.917,2.917,0,0,0,.122-.877,2.217,2.217,0,0,0-.1-.683.93.93,0,0,0-.294-.466.672.672,0,0,0-.422-.15m-.1-.673a1.86,1.86,0,0,1,1.412.536,2.121,2.121,0,0,1,.512,1.524,2.2,2.2,0,0,1-.518,1.554,1.692,1.692,0,0,1-1.3.559,1.8,1.8,0,0,1-1.293-.529,2.092,2.092,0,0,1-.55-1.576,2.188,2.188,0,0,1,.492-1.53,1.609,1.609,0,0,1,1.24-.538" transform="translate(-736.651 325.786)"/><path class="a" d="M835.842-292.127a2.508,2.508,0,0,1,.655-.463,1.718,1.718,0,0,1,.744-.159.85.85,0,0,1,.659.222,1.169,1.169,0,0,1,.266.811v3.071h-1.014v-2.812a.52.52,0,0,0-.1-.353.352.352,0,0,0-.274-.106.9.9,0,0,0-.4.106,2.6,2.6,0,0,0-.54.409v2.757H834.82v-4.033h1.021Z" transform="translate(-755.165 325.787)"/><path class="a" d="M858.578-289.711v-1.01a2.663,2.663,0,0,0-1.213.455.638.638,0,0,0-.255.492.492.492,0,0,0,.146.366.505.505,0,0,0,.372.144,1.026,1.026,0,0,0,.431-.113,2.773,2.773,0,0,0,.52-.335m-2.283-2.309a2,2,0,0,1,.718-.542,2.172,2.172,0,0,1,.9-.187,2.031,2.031,0,0,1,.873.177,1.206,1.206,0,0,1,.475.442,1.389,1.389,0,0,1,.2.775v1.88a2.538,2.538,0,0,0,.045.429,2.685,2.685,0,0,0,.1.4h-.891a2.927,2.927,0,0,1-.1-.415,2.053,2.053,0,0,1-.568.363,1.576,1.576,0,0,1-.609.122,1.265,1.265,0,0,1-.9-.331,1.043,1.043,0,0,1-.354-.786,1.193,1.193,0,0,1,.163-.6,1.506,1.506,0,0,1,.477-.5,2.658,2.658,0,0,1,.792-.342,6.757,6.757,0,0,1,.966-.163,1.116,1.116,0,0,0-.044-.37.537.537,0,0,0-.234-.278.786.786,0,0,0-.411-.1,1.193,1.193,0,0,0-.988.536Z" transform="translate(-772.259 325.786)"/></svg>